<?xml version="1.0" encoding="utf-8"?>
<svg xmlns="http://www.w3.org/2000/svg">
<symbol id="anchor" viewBox="0 0 295.2 295.2"><path d="M204.8 64.7c-18.4-16.5-42.2-24-66.9-21.3-38.6 4.3-70.2 35.3-75.2 73.7-3.5 26.9 5.5 53.2 24.6 72.2 7.5 7.4 11.9 16.8 12.6 26.7-5.5 2.7-9.4 8.4-9.4 14.9 0 4.7 1.9 8.9 5 11.9-3.1 3-5 7.2-5 11.9s1.9 8.9 5 11.9c-3.1 3-5 7.2-5 11.9 0 9.2 7.5 16.7 16.7 16.7h81c9.2 0 16.7-7.5 16.7-16.7 0-4.7-1.9-8.9-5-11.9 3.1-3 5-7.2 5-11.9s-1.9-8.9-5-11.9c3.1-3 5-7.2 5-11.9 0-6.6-3.8-12.2-9.4-14.9.7-9.9 5.1-19.4 12.2-26.3 16.6-16.3 25.7-38 25.7-61.1-.1-24.4-10.5-47.7-28.6-63.9zm-16.7 221h-81c-3.9 0-7.1-3.2-7.1-7.1 0-3.9 3.2-7.1 7.1-7.1h81c3.9 0 7.1 3.2 7.1 7.1s-3.2 7.1-7.1 7.1zm0-23.8h-81c-3.9 0-7.1-3.2-7.1-7.1 0-3.9 3.2-7.1 7.1-7.1h81c3.9 0 7.1 3.2 7.1 7.1 0 3.9-3.2 7.1-7.1 7.1zm0-23.8h-81c-3.9 0-7.1-3.2-7.1-7.1s3.2-7.1 7.1-7.1h81c3.9 0 7.1 3.2 7.1 7.1s-3.2 7.1-7.1 7.1zm12.8-55.2c-8.5 8.4-13.9 19.6-15 31.4h-76.6c-1.1-11.8-6.5-22.9-15.4-31.7-17-16.9-25-40.2-21.9-64.2 4.4-34.2 32.5-61.7 66.8-65.5 22-2.4 43.2 4.3 59.5 18.9 16.1 14.4 25.4 35.1 25.4 56.8.1 20.6-8 39.9-22.8 54.3z"/><path d="M266.6 129.2c-1.8-52.3-37.4-96.1-85.7-110.2h71.5v9.5H281V0h-28.6v9.5H42.9V0H14.3v28.6h28.6V19h71.5C66.1 33.1 30.5 76.9 28.7 129.2c-8.2 2.1-14.4 9.5-14.4 18.4 0 10.5 8.5 19 19 19s19-8.5 19-19c0-8.8-6-16.2-14.2-18.3C40.3 70.8 88.6 23.8 147.6 23.8s107.3 47 109.4 105.5c-8.1 2.2-14.2 9.5-14.2 18.3 0 10.5 8.5 19 19 19s19-8.5 19-19c.2-8.9-6-16.3-14.2-18.4zM261.9 9.5h9.5V19h-9.5V9.5zM33.3 19h-9.5V9.5h9.5V19zm9.6 128.6c0 5.3-4.3 9.5-9.5 9.5s-9.5-4.3-9.5-9.5 4.3-9.5 9.5-9.5 9.5 4.3 9.5 9.5zm219 9.5c-5.3 0-9.5-4.3-9.5-9.5s4.3-9.5 9.5-9.5 9.5 4.3 9.5 9.5-4.2 9.5-9.5 9.5z"/><path d="M176.2 114.3c7.9 0 14.3-6.4 14.3-14.3s-6.4-14.3-14.3-14.3-14.3 6.4-14.3 14.3v4.8h-28.6V100c0-7.9-6.4-14.3-14.3-14.3s-14.3 6.4-14.3 14.3 6.4 14.3 14.3 14.3h4.8v28.6H119c-7.9 0-14.3 6.4-14.3 14.3s6.4 14.3 14.3 14.3 14.3-6.4 14.3-14.3v-4.8h28.6v4.8c0 7.9 6.4 14.3 14.3 14.3s14.3-6.4 14.3-14.3-6.4-14.3-14.3-14.3h-4.8v-28.6h4.8zm-4.8-14.3c0-2.6 2.1-4.8 4.8-4.8s4.8 2.1 4.8 4.8-2.1 4.8-4.8 4.8h-4.8V100zm-47.6 57.1c0 2.6-2.1 4.8-4.8 4.8s-4.8-2.1-4.8-4.8 2.1-4.8 4.8-4.8h4.8v4.8zm0-52.3H119c-2.6 0-4.8-2.1-4.8-4.8s2.1-4.8 4.8-4.8 4.8 2.1 4.8 4.8v4.8zm38.1 38.1h-28.6v-28.6h28.6v28.6zm14.3 9.5c2.6 0 4.8 2.1 4.8 4.8s-2.1 4.8-4.8 4.8-4.8-2.1-4.8-4.8v-4.8h4.8z"/>
</symbol>
<symbol id="arrows" viewBox="0 0 512 512"><path d="M508 112.3c-1.2-3-4.1-4.9-7.3-4.9h-99.5V7.9c0-3.2-1.9-6.1-4.9-7.3-3-1.2-6.4-.5-8.6 1.7L331 59l-53.7 53.7c-1.5 1.5-2.3 3.5-2.3 5.6v9.3c-23.1-9.1-47.4-13.7-72.6-13.7-109.8 0-199 89.3-199 199s89.3 199 199 199 199-89.3 199-199c0-27.7-5.5-54.3-16.5-79.4h5.3c2.1 0 4.1-.8 5.6-2.3l53.7-53.7 56.7-56.7c2.4-2.2 3-5.6 1.8-8.5zM344.5 67.9L385.4 27v85l-40.9 40.9v-85zm-53.7 71.7v-18l37.9-37.9v85l-27.9 27.9-9.4 9.4c-.2-.2-.4-.4-.7-.5l.1-65.9zM275 213.2v9.3l-20 20c-15.2-11.3-33.6-17.5-52.6-17.5-48.6 0-88.1 39.5-88.1 88.1s39.5 88.1 88.1 88.1 88.1-39.5 88.1-88.1c0-22.3-8.5-43.7-23.7-60l19.4-19.4h10.7c18.7 22.2 29 50.3 29 79.4 0 68.1-55.4 123.5-123.5 123.5C134.3 436.4 78.9 381 78.9 313s55.4-123.5 123.5-123.5c26.4 0 51.4 8.2 72.6 23.7zm-75.2 95.6c1.5 1.5 3.6 2.3 5.6 2.3s4-.8 5.6-2.3l17.8-17.8c5.1 6.1 8 13.8 8 21.9 0 18.9-15.4 34.3-34.3 34.3s-34.3-15.4-34.3-34.3 15.4-34.3 34.3-34.3c4.7 0 9.3 1 13.5 2.8l-16.2 16.2c-3.1 3.1-3.1 8.2 0 11.2zm27.9-39.1c-7.6-4.5-16.4-6.9-25.3-6.9-27.6 0-50.1 22.5-50.1 50.1s22.5 50.1 50.1 50.1 50.1-22.5 50.1-50.1c0-12.4-4.5-24-12.6-33.1l15.7-15.7c12.2 13.3 19 30.7 19 48.8 0 39.8-32.4 72.3-72.3 72.3S130 352.8 130 312.9s32.4-72.3 72.3-72.3c14.8 0 29.2 4.6 41.3 13l-15.9 16.1zM385.6 313c0 101-82.2 183.2-183.2 183.2S19.2 414 19.2 313s82.2-183.2 183.2-183.2c25.3 0 49.7 5 72.6 15v49.4c-21.8-13.4-46.6-20.5-72.6-20.5-76.8 0-139.3 62.5-139.3 139.3s62.5 139.3 139.3 139.3c76.8 0 139.3-62.5 139.3-139.3 0-28.5-8.7-56.1-24.9-79.4h50.8c12 24.8 18 51.5 18 79.4zm1.4-95.2h-83l-1-1 9-9 27.9-27.9h85L387 217.8zm53.7-53.7h-85l40.9-40.9h85l-40.9 40.9z"/>
</symbol>
<symbol id="cloud" viewBox="0 0 512 512"><path d="M511.7 222.6l-16.6-64.4c-.8-3.1-3-5.5-6-6.6s-6.3-.5-8.8 1.4L427 192.9c-1.5 1.1-2.6 2.7-3.3 4.4l-25 71.3c-6.6-6.1-13.8-11.5-21.4-16.2l9.2-79.1c23.3-31.2 32.8-62.5 28.2-93.1-7.1-47.2-45.1-74.8-46.8-76-3.4-2.4-8-2.3-11.3.2-3.3 2.5-4.5 6.9-3.1 10.8l4.4 11.7c7.2 18.9 0 40.5-17.1 51.4-27.2 17.2-36.6 51.7-21.9 80.3l4.7 9.2-3.7 64.8c-5-.6-10.2-.9-15.3-.9-10.8 0-21.5 1.3-31.9 3.7l-1.7-7.6c2.5-1.7 4.7-3.8 6.4-6.5 3.1-4.9 4.1-10.7 2.9-16.3-1.3-5.6-4.6-10.4-9.5-13.5-2.5-1.6-5.2-2.6-8-3.1l-2.3-10.2c-.9-4.3-.7-8.6.6-11.8 5.2-12.9 2.2-30-7.2-40.8L203 67.5c-2.3-2.6-5.8-3.8-9.2-3-3.4.8-6.1 3.3-7 6.6l-21.4 74.3c-4 13.8.6 30.6 10.8 40 2.6 2.4 4.6 6.2 5.5 10.5l2.3 10.2c-2.4 1.6-4.4 3.7-6 6.2-3.1 4.9-4.1 10.7-2.9 16.3 1.3 5.6 4.6 10.4 9.5 13.5 2.6 1.7 5.6 2.7 8.6 3.2l7.4 33.5c-6.5 7.3-12.2 15.4-17 23.9-2.6-.4-5.2-.8-7.7-1l-42.2-65.3c-1.4-2.1-3.5-3.6-6-4.1-2.4-.5-5-.1-7.1 1.3L18.9 299.4c-4.4 2.8-5.6 8.7-2.8 13.1l37.6 58.2C22.9 378.1 0 406 0 439.1c0 38.9 31.6 70.5 70.5 70.5h359.1c38.9 0 70.5-31.6 70.5-70.5 0-27.8-16.4-52.2-40.3-63.6l51.7-147.3c.6-1.9.7-3.8.2-5.6zm-31.4-46l2.5 9.6c-1.8-.2-3.7-.6-5.4-1.3-1.8-.6-3.5-1.4-5-2.4l7.9-5.9zm-43.1 39.5c5.1 3.5 10.4 6.6 16 9.1L425.9 303c-3.7-6.6-7.9-12.9-12.6-18.8l23.9-68.1zM351 94.3c17.8-11.3 28.1-30.6 28.6-50.7 7.2 10.3 13.9 23.6 16.3 39.4 3.7 24.7-4.1 50.5-23 76.8l-33.6-2.9-3.5-6.8c-10.1-19.9-3.6-43.9 15.2-55.8zm-9.6 95.6l.8-13.8 24.6 2.1-1.6 13.7-23.8-2zm21.7 20.8l-3.7 32.3c-6.6-2.8-13.5-5.2-20.6-7l1.6-27.3 22.7 2zM189 171.6c-5-4.6-7.4-14-5.4-20.9l11.2-38.7 6.7 30.2c1 4.4 4.9 7.4 9.2 7.4.7 0 1.4-.1 2.1-.2 5.1-1.1 8.3-6.2 7.2-11.3l-6.7-30.2 26.5 30.4c4.7 5.4 6.5 14.9 3.9 21.2-2.8 6.8-3.3 15-1.5 23.1l1.9 8.6-42 9.3-1.9-8.6c-1.9-8.1-5.8-15.3-11.2-20.3zm9.6 54.5s-.1 0 0 0l-1.8.4c-.9.2-1.6-.1-2-.4-.4-.3-1-.8-1.2-1.7-.2-.9.1-1.6.4-2 .3-.4.8-1 1.7-1.2l1.3-.3 61.8-13.7c.2 0 .4-.1.6-.1.6 0 1.1.2 1.4.4.4.3 1 .8 1.2 1.7.2.9-.1 1.6-.4 2-.3.4-.8 1-1.7 1.2l-61.3 13.7zm56 15c-8.4 3.3-16.5 7.3-24.2 12.2-4.8 3.1-9.5 6.4-13.9 10l-4.6-20.8 41-9.1 1.7 7.7zm-217.5 69l85.7-55.5 30.6 47.3c-18.2 2.2-35.3 9.1-50.1 20.3-13.9 10.5-25 24.6-32.2 40.4l-34-52.5zm444 129c0 28.4-23.1 51.6-51.6 51.6h-359c-28.4 0-51.6-23.1-51.6-51.6s23.1-51.6 51.6-51.6c1.2 0 2.6.1 4.2.2 4.5.4 8.5-2.4 9.8-6.7 10.7-35.8 44.3-60.8 81.7-60.8 6.8 0 13.6.8 20.2 2.4 4.3 1 8.7-1 10.7-5 20.4-41.2 61.6-66.9 107.6-66.9 66.1 0 120 53.8 120 120 0 2.1-.1 4.4-.2 7-.3 5.2 3.6 9.6 8.8 10 26.8 1.8 47.8 24.4 47.8 51.4zm-37.7-74.3c-.5-12.6-2.7-24.8-6.4-36.4l34-96.9c6 1.5 12 2.5 18.2 2.9l-45.8 130.4zm4.7-164.1l8.5-6.3c4.2 3.7 9.1 6.6 14.5 8.5 4.8 1.7 9.8 2.5 14.8 2.5.6 0 1.2 0 1.8-.1l2.6 10.2c-15.1-1-29.7-6.1-42.2-14.8z"/><path d="M293.6 380.9c-.1 0-.1 0 0 0-15-21.2-38.9-33.8-65.2-33.8-43.9 0-79.6 35.7-79.6 79.6 0 5.2 4.2 9.5 9.5 9.5s9.5-4.2 9.5-9.5c0-33.5 27.2-60.7 60.7-60.7 21.5 0 40.9 11 52 29.4 1.9 3.1 5.4 4.9 9 4.5 1.4-.1 2.8-.2 4.2-.2 24.2 0 43.8 19.7 43.8 43.8 0 5.2 4.2 9.5 9.5 9.5s9.5-4.2 9.5-9.5c-.2-34.5-28.3-62.6-62.9-62.6z"/>
</symbol>
<symbol id="compass" viewBox="0 0 295.2 295.2"><path d="M244.4 239.4l-6.9-6.6c-.3.4-.7.7-1.1 1.1l-39.6-129.6c5-6.4 8-14.5 8-23.3 0-21-17.1-38.1-38.1-38.1V25.4c1.3.2 2.5.3 3.8.6l1.7-9.4c-2-.4-3.9-.6-5.9-.9C164.7 6.8 157 0 147.6 0s-17.1 6.8-18.7 15.7c-2 .3-3.9.5-5.9.9l1.7 9.4c1.3-.2 2.5-.4 3.8-.6v17.5c-21 0-38.1 17.1-38.1 38.1 0 8.8 3 16.8 8 23.3L58.9 233.9l-1.1-1.1-6.9 6.6c1.6 1.6 3.2 3.2 4.9 4.8l-8 25.8-.2 25.2 27.9-20.9 3.8-12.3c1 .6 2 1.3 3 1.9l4.7-8.3c-1.6-.9-3.2-2-4.8-3l17.5-57.4h95.9l17.5 57.4-4.8 3 4.7 8.3c1-.6 2-1.2 3-1.9l3.8 12.3 27.9 20.9v-24.5l-8.1-26.6c1.5-1.5 3.2-3.1 4.8-4.7zm-77.7-187c15.8 0 28.6 12.8 28.6 28.6 0 9.2-4.4 17.3-11.1 22.6-2.8-9.4-9.1-17.3-17.5-22.2V81c0-10.3-4.1-19.6-10.7-26.5 3.2-1.4 6.9-2.1 10.7-2.1zm-1.6 39.3c5.2 4 8.9 9.8 10.4 16.4-2.8.9-5.7 1.4-8.8 1.4-3.8 0-7.4-.8-10.7-2.1 4.1-4.4 7.3-9.7 9.1-15.7zm-17.5 10.5c-4.4-3.9-7.5-9.1-8.8-15.1 2.8-.9 5.7-1.4 8.8-1.4s6 .5 8.8 1.4c-1.3 6-4.4 11.2-8.8 15.1zm0-26c-3.2 0-6.3.4-9.3 1.2.9-7 4.3-13.2 9.3-17.7 5 4.5 8.4 10.7 9.3 17.7-3-.8-6.1-1.2-9.3-1.2zm-8.3 31.2c-3.3 1.4-6.9 2.1-10.7 2.1-3.1 0-6-.5-8.8-1.4 1.5-6.6 5.2-12.4 10.4-16.4 1.7 6 4.9 11.3 9.1 15.7zM128.6 119c6.9 0 13.4-1.9 19-5.2 5.6 3.3 12.1 5.2 19 5.2 3.2 0 6.3-.4 9.3-1.2-1.8 14.1-13.8 25-28.3 25s-26.6-10.9-28.3-25c3 .8 6.1 1.2 9.3 1.2zm9.5-100c0-5.3 4.3-9.5 9.5-9.5s9.5 4.3 9.5 9.5v25.1c-3.4.9-6.6 2.2-9.5 3.9-2.9-1.7-6.1-3-9.5-3.9V19zm-9.5 33.4c3.8 0 7.4.8 10.7 2.1-6.6 6.9-10.7 16.2-10.7 26.5v.4c-8.4 4.8-14.7 12.7-17.5 22.2C104.4 98.3 100 90.1 100 81c0-15.8 12.8-28.6 28.6-28.6zM67.3 268.5l-10.2 7.6V272l49-160.4c1.1.8 2.2 1.5 3.4 2.2v.4c0 3.8.6 7.4 1.6 10.9L67.3 268.5zm35.3-82.8l14.8-48.4c7 9.1 17.9 15 30.2 15s23.3-5.9 30.2-15l14.8 48.4h-90zm135.5 90.5l-10.2-7.6-43.8-143.4c1-3.5 1.6-7.1 1.6-10.9v-.4c1.2-.7 2.3-1.4 3.4-2.2l49 160.4v4.1zM208.3 28.9c-5.6-2.9-11.5-5.4-17.5-7.4l-3.1 9c5.6 1.9 11 4.2 16.3 6.9l4.3-8.5zM262.9 80.6c-3.2-5.5-6.8-10.7-10.7-15.7l-7.5 5.9c3.7 4.6 7 9.5 10 14.6l8.2-4.8zM239.3 50.8c-4.6-4.4-9.6-8.4-14.7-12.1l-5.5 7.8c4.8 3.4 9.4 7.2 13.7 11.2l6.5-6.9zM267.9 118.1l9.2-2.3c-1.5-6.2-3.5-12.3-5.9-18.1l-8.8 3.6c2.3 5.4 4.1 11 5.5 16.8zM280.3 134.6l-9.5.9c.4 4 .6 8.1.6 12.1 0 1.9 0 3.7-.1 5.5l9.5.4c.1-2 .1-4 .1-6 .1-4.2-.2-8.6-.6-12.9zM264.8 187.8l9 3.1c2.1-6 3.7-12.2 4.9-18.4l-9.4-1.8c-1.1 5.8-2.6 11.5-4.5 17.1zM248.7 219.2l7.8 5.5c3.7-5.2 7-10.6 9.9-16.3l-8.5-4.4c-2.7 5.3-5.8 10.4-9.2 15.2z"/><path d="M174.5 268.5l2.1 9.3c6.3-1.4 12.6-3.3 18.7-5.6l-3.4-8.9c-5.7 2.1-11.5 3.9-17.4 5.2zM147.6 271.4c-3-.1-6-.1-9.1-.3l-.7 9.5c3.2.2 6.4.4 9.6.4 3.4.1 6.6-.1 9.9-.3l-.7-9.5c-2.9.1-6 .2-9 .2zM99.9 272.2c6.1 2.3 12.3 4.2 18.7 5.6l2.1-9.3c-5.9-1.3-11.7-3.1-17.3-5.2l-3.5 8.9zM107.7 30.4l-3.1-9c-6 2-11.9 4.5-17.5 7.4l4.3 8.5c5.2-2.7 10.7-5 16.3-6.9zM50.6 70.7l-7.5-5.9c-3.9 5-7.6 10.3-10.7 15.7l8.2 4.8c3-5.1 6.4-10 10-14.6zM28.9 208.3c2.9 5.6 6.2 11.1 9.9 16.3l7.8-5.5c-3.4-4.8-6.5-9.9-9.2-15.1l-8.5 4.3zM25.9 170.6l-9.4 1.8c1.2 6.2 2.8 12.4 4.8 18.4l9-3.1c-1.8-5.6-3.3-11.3-4.4-17.1zM23.8 147.6c0-4.1.2-8.2.6-12.3l-9.5-.9c-.4 4.4-.6 8.8-.6 13.2 0 1.9 0 3.9.1 5.8l9.5-.4c-.1-1.8-.1-3.6-.1-5.4zM76.3 46.4l-5.5-7.8c-5.2 3.6-10.1 7.7-14.7 12l6.5 6.9c4.3-3.9 8.9-7.7 13.7-11.1zM32.8 101.1L24 97.5c-2.4 5.9-4.4 12-5.9 18.1l9.2 2.3c1.5-5.7 3.3-11.4 5.5-16.8z"/>
</symbol>
<symbol id="drawing" viewBox="0 0 296.5 296.5"><path d="M284.9 237.2l-12.9 3.2-19-41.7-5.9-53.3 8.8 1.3c.6.1 1.2.1 1.7.1 5.2 0 9.9-3.3 11.5-8.3 1.1-3.4.7-7.2-1.2-10.2-1.9-3.1-5-5.1-8.6-5.6l-10.9-1.6V23.8c0-13.1-10.7-23.8-23.8-23.8h-200C11.5 0 .8 10.7.8 23.8c0 11.5 8.2 21.1 19 23.3v248.1h190.3l.4 1.3 9.2-2.6-8.2-28.6 2.7-.7 61.9-15.5 2.6-.7 8.1 24.4 9-3-10.9-32.6zm-36.8-106.6l9.9 1.4c1.1.1 1.6.8 1.9 1.2s.6 1.2.3 2.2c-.4 1.2-1.6 1.9-2.9 1.8l-10-1.4.8-5.2zM224.6 9.5c7.9 0 14.3 6.4 14.3 14.3v85l-9.5-5.6V38.1h-4.8c-7.9 0-14.3-6.4-14.3-14.3s6.4-14.3 14.3-14.3zm-48.7 116.2l-22.9-3.3-2.1-4.2c-.3-.5-.6-1.1-.9-1.6l22.6 3.2 62.5 8.9 3.6.5-.9 5.2-14.8-2.1-47.1-6.6zm9.4 16.4l-8.8 8.8-14.8-11.1-3.5-7 23.7 3.4 3.4 5.9zM132.7 105l-15.3 5.1c-.7.1-1.5.2-2.2.3 0-.3-.1-.6-.1-.9 0-10.2 3.6-19.5 9.5-26.9 4 5 7 11 8.5 17.5 0 0 0 .1-.1.1-.4 1.7-.4 3.2-.3 4.8zm-11.3 22.1l.7 5.9c-2.7-4-4.6-8.5-5.8-13.2.7-.1 1.3-.2 2-.3l3.2 3.2c-.2 1.5-.3 2.9-.1 4.4zm-3.6 16c-7.5 5.9-16.8 9.3-26.6 9.3-2.8 0-5.6-.3-8.2-.8 3.2-12.9 12.2-23.6 24.3-28.9 1.9 7.5 5.5 14.5 10.5 20.4zM105.7 113c-15.8 6-27.6 19.3-31.8 35.7-15-6.7-25.5-21.7-25.5-39.2 0-23.6 19.2-42.9 42.9-42.9 9.9 0 19.2 3.4 26.5 9.3-7.6 9.1-12.2 20.8-12.2 33.6-.1 1.2.1 2.4.1 3.5zm-23.9 48c3.1.6 6.2.9 9.5.9 12.2 0 23.7-4.2 33-11.8l.6 4.5 33.5 33.5c-8.1 10.5-20.4 16.6-33.8 16.6-23.6 0-42.9-19.2-42.9-42.9 0-.2.1-.5.1-.8zm49.6-85.1c7.3-5.8 16.5-9.3 26.5-9.3 11.4 0 22.1 4.6 29.9 12.4l-5.7-3.3L142 90.3c-.6.2-1.2.6-1.7.9-2.1-5.6-5.1-10.8-8.9-15.3zm10.8 26.8c.4-1.6 1.5-2.8 3.1-3.4l36-13.1 53.1 31 .2 1.9-23.7-3.4-32.4-4.6-3.9-6.8-20.1 3.4-12.1-1.7c-.3-1.1-.5-2.2-.2-3.3zM10.3 23.8c0-7.9 6.4-14.3 14.3-14.3h181.1c-3 4-4.9 8.9-4.9 14.3s1.9 10.3 4.9 14.3H24.6c-7.9 0-14.3-6.4-14.3-14.3zm189.3 234.7l7.8 27.2h-178V47.6h190.5v50l-13.5-7.9C198.4 70.1 179.2 57 158 57c-12.7 0-24.3 4.5-33.3 12-9.1-7.5-20.8-12-33.3-12C62.5 57 39 80.5 39 109.4c0 22.2 13.9 41.2 33.5 48.8-.1 1.2-.2 2.4-.2 3.6 0 28.9 23.5 52.4 52.4 52.4 15.9 0 30.7-7.2 40.6-19.4l3.9 3.9 32.3 27.7 9.7 29-11.6 3.1zm42.6-10.7l-21.8 5.5-10.7-32.2-34.1-29.2-41.7-41.7-3-24.2c-.1-.8 0-1.6.2-2.4l.2-.6c.5-1.2 1.2-2.2 2.2-2.9 2.5-1.6 6.1-1.1 8.1 1l.9 1.2 4.3 8.7 7.4 14.9 23.3 17.4 19.8-19.8-3.3-5.8 43.5 6.2 6.3 56.5 18.9 42.2-20.5 5.2z"/>
</symbol>
<symbol id="graphic-design" viewBox="0 0 295.3 295.3"><path d="M147.7 76.2c-31.5 0-57.1 25.6-57.1 57.1 0 20.5 10.9 39.2 28.6 49.4v5.4c-2.9 2.2-4.8 5.6-4.8 9.5 0 2.7.9 5.1 2.4 7.1-1.5 2-2.4 4.4-2.4 7.1 0 6.6 5.3 11.9 11.9 11.9h42.9c6.6 0 11.9-5.3 11.9-11.9 0-2.7-.9-5.1-2.4-7.1 1.5-2 2.4-4.5 2.4-7.1 0-3.9-1.9-7.3-4.8-9.5v-5.4c17.7-10.2 28.6-28.9 28.6-49.4-.1-31.4-25.7-57.1-57.2-57.1zm21.4 138.1h-42.9c-1.3 0-2.4-1.1-2.4-2.4s1.1-2.4 2.4-2.4h42.9c1.3 0 2.4 1.1 2.4 2.4 0 1.4-1.1 2.4-2.4 2.4zm0-14.3h-42.9c-1.3 0-2.4-1.1-2.4-2.4s1.1-2.4 2.4-2.4h42.9c1.3 0 2.4 1.1 2.4 2.4s-1.1 2.4-2.4 2.4zm.2-24.3l-2.6 1.3v8.7h-14.3v-34c8.2-2.1 14.3-9.5 14.3-18.4 0-10.5-8.5-19-19-19s-19 8.5-19 19c0 8.8 6.1 16.2 14.3 18.4v34h-14.3V177l-2.6-1.3c-16-8.2-26-24.4-26-42.4 0-26.3 21.4-47.6 47.6-47.6s47.6 21.4 47.6 47.6c0 18-10 34.2-26 42.4zm-21.6-32.8c-5.3 0-9.5-4.3-9.5-9.5 0-5.3 4.3-9.5 9.5-9.5s9.5 4.3 9.5 9.5-4.3 9.5-9.5 9.5z"/><path d="M291.8 177.2c-3.3-15.3-9-30.6-16.6-45.7 11.1-38 6.2-73.3-16-95.4-19.7-19.7-49.9-26.3-85.1-18.6-3.4.7-6.9 1.7-10.3 2.7-15.1-7.6-30.4-13.3-45.7-16.6C79.2-5.1 45.8 2.3 24 24 2.3 45.8-5 79.2 3.5 118.1c3.3 15.3 9 30.6 16.6 45.7-11.3 38.5-5.9 73.5 16 95.4C50.4 273.6 70.3 281 93.7 281c8.7 0 17.9-1 27.5-3.1 3.4-.7 6.9-1.7 10.3-2.7 15.1 7.6 30.4 13.3 45.7 16.6 10.6 2.3 20.8 3.5 30.4 3.5 25.8 0 47.8-8.2 63.7-24 21.8-21.8 29.1-55.2 20.5-94.1zM252.5 42.8c17.8 17.8 22.9 45.6 16.1 76.5-10.7-18.3-24.4-36-40.5-52.1S194.3 37.4 176 26.7c30.6-6.7 58.5-1.9 76.5 16.1zM12.8 116.1c-7.8-35.6-1.4-65.9 18-85.3 14-14 33.7-21.2 57-21.2 9 0 18.5 1.1 28.4 3.2 11.6 2.5 23.2 6.5 34.8 11.7C124.3 34.7 97.9 52.1 75 75c-8.3 8.3-15.9 17.2-22.8 26.4-2.2-.7-4.5-1.2-6.9-1.2-11.8 0-21.4 9.6-21.4 21.4 0 6.1 2.6 11.6 6.7 15.5-2.2 4.7-4.3 9.4-6.1 14-5.3-11.7-9.2-23.4-11.7-35zm44.4 5.4c0 6.6-5.3 11.9-11.9 11.9s-11.9-5.3-11.9-11.9 5.3-11.9 11.9-11.9 11.9 5.3 11.9 11.9zm-14.4 131c-17.6-17.6-22.9-45.2-16-76.4 10.7 18.3 24.4 35.9 40.5 52s33.8 29.8 52.1 40.5c-30.7 6.8-58.6 1.9-76.6-16.1zm31.1-31.1c-18-18-32.8-37.9-43.6-58.5 2.2-6.9 5.1-14 8.5-21.1 2.1.7 4.2 1.1 6.5 1.1 11.8 0 21.4-9.6 21.4-21.4 0-6-2.4-11.3-6.4-15.2 6.4-8.6 13.6-16.8 21.3-24.6 25.1-25.1 53.8-42.6 81.2-51.4C183.4 41.2 203.3 56 221.3 74c18 18 32.8 37.9 43.7 58.5-5.3 16.5-13.9 33.6-25.6 50.3-2.6-1.1-5.5-1.8-8.5-1.8-11.8 0-21.4 9.6-21.4 21.4 0 4.4 1.3 8.4 3.6 11.8-25 24.8-53.5 42.2-80.6 50.9-20.6-10.9-40.5-25.7-58.6-43.7zm169-19c0 6.6-5.3 11.9-11.9 11.9s-11.9-5.3-11.9-11.9 5.3-11.9 11.9-11.9c6.6 0 11.9 5.3 11.9 11.9zm21.6 62.1c-19.4 19.4-49.7 25.8-85.3 18-11.6-2.5-23.2-6.5-34.8-11.7 26.6-10.1 52.8-27.4 75.6-50.1 3.2 1.9 6.9 3.1 10.9 3.1 11.8 0 21.4-9.6 21.4-21.4 0-5.3-2-10.2-5.3-13.9 10.2-14.6 18.1-29.4 23.7-44.1 5.2 11.6 9.1 23.3 11.7 34.8 7.9 35.6 1.5 65.9-17.9 85.3z"/>
</symbol>
<symbol id="hexagon" viewBox="0 0 59 66.1"><path d="M55.6 14.1L32.7.9C30.6-.3 28.1-.3 26 .9L3.3 14.1C1.2 15.3 0 17.5 0 19.9v26.3c0 2.4 1.2 4.6 3.2 5.8L26 65.2c2.1 1.2 4.6 1.2 6.7 0L55.6 52c2.1-1.2 3.4-3.4 3.4-5.8V19.9c0-2.4-1.4-4.6-3.4-5.8z"/>
</symbol>
<symbol id="idea" viewBox="0 0 295.2 295.2"><path d="M277.5.1l-27.7 20.7L222 85.7h-22.4l-8.8-19h5.7c10.5 0 19-8.5 19-19V28.6h9.5V0h-28.6v28.6h9.5v19.1c0 5.2-4.3 9.4-9.5 9.4h-10.1l-12.2-26.3 14.6-7.3L141 3.1l-11.2 39.3C129.5 19 110.4.1 87 .1 63.4.1 44.1 19.3 44.1 43c0 14.3 7.2 27.7 19 35.6v7.2H51.6l-.7 3.9c-2.3 12-2.5 24.3-.6 36.6l-32.5 57.9 35.9 8.2v60h47.6v42.9h114.3v-66.4c33.3-23.6 52.4-61.5 52.3-101.9v-17.4c0-6.5-.6-13.3-1.8-19.9l-.7-3.9H256l21.4-51.3.1-34.4zm-71.5 19V9.6h9.5v9.5H206zm-16.9 66.6H171l-8.7-19h17.9l8.9 19zm-41.9-69.6l18.9 8.1-4.5 2.2 14.2 30.7H158l-11.6-25.5-4.3 2.2 5.1-17.7zm13.3 69.6h-21.2v-9.4c0-5.3 4.3-9.6 9.5-9.6h3l8.7 19zm-18.7-41l5.8 12.7c-9.9.7-17.8 8.8-17.8 18.9v9.4h-19v-7.2c9.5-6.4 16-16.4 18.2-27.5l12.8-6.3zm-88.1-1.8c0-18.4 15-33.3 33.3-33.3s33.3 15 33.3 33.3c0 11.8-6.4 22.9-16.7 28.8l-2.4 1.4v12.6h-9.5V56.4c5.5-2 9.5-7.2 9.5-13.4 0-7.9-6.4-14.3-14.3-14.3S72.6 35.1 72.6 43c0 6.2 4 11.4 9.5 13.4v29.4h-9.5V73.2l-2.4-1.4c-10.2-6-16.5-17-16.5-28.9zM87 47.7c-2.6 0-4.8-2.1-4.8-4.8 0-2.6 2.1-4.8 4.8-4.8s4.8 2.1 4.8 4.8-2.2 4.8-4.8 4.8zm170.4 47.5c.7 4.8 1 9.6 1 14.3v17.4c0 38.1-18.8 73.9-50.3 95.6l-2.1 1.4v61.8h-95.2v-42.9H63.2v-58.1l-30.9-7L60.2 128l-.3-1.7c-1.8-10.4-1.9-21.6-.3-31.1h197.8zm-11.7-9.5h-13.4L256 30.4l10.6 5.3-20.9 50zm22.2-60l-5.3-2.6 5.3-3.9v6.5z"/><path d="M96.5 123.8c-7.9 0-14.3-4.8-14.3-14.3h-9.5c0 14.3 10.7 23.8 23.8 23.8s23.8-9.5 23.8-23.8h-9.5c0 9.5-6.4 14.3-14.3 14.3z"/>
</symbol>
<symbol id="logo" viewBox="0 0 127.4 37.9"><g fill="#0088E8"><path d="M10.9 29.8v.3c0 1.1-.3 2-1.1 2.7C9 33.7 8.1 34 7 34c-1.1 0-2-.4-2.8-1.2C3.4 32 3 31 3 29.9v-.6l-3 .8v.4c0 1.6.7 3.2 2 4.5 1.4 1.3 3.1 2 5 2s3.6-.7 4.9-2.1c1.3-1.3 1.9-2.9 1.9-4.9V0h-3l.1 29.8zM43.3 30.6c-.2.3-.4.5-.7.7-1.9 1.9-4.2 2.8-6.8 2.8-2.3 0-4.3-.7-6-2.1l15.8-15.8-.4-.2-.4-.4c-.4-.4-.7-.7-1.1-1-2.3-1.8-4.9-2.7-7.9-2.7-3.5 0-6.5 1.3-9 3.7-2.5 2.5-3.7 5.5-3.7 9s1.3 6.5 3.7 9c2.5 2.5 5.5 3.7 9 3.7s6.5-1.3 9-3.7c.5-.5 1-1 1.4-1.6l.4-.5-3-1.1-.3.2zm-7.5-15.7c2 0 3.8.5 5.3 1.6L27.8 29.9c-1.1-1.5-1.6-3.3-1.6-5.3 0-2.7 1-4.9 2.8-6.8 1.9-1.9 4.2-2.9 6.8-2.9zM55.4 0h3v36.7h-3zM97.8 10.9l2.7-6h3.1l-2.9 6zM97.8 13.8h3v22.9h-3zM120.1 24.2l6-10.4h-3.4l-4.2 7.3-4.2-7.3h-3.5l6 10.4-7.2 12.5h3.4l5.5-9.4 5.4 9.4h3.5zM86.5 19.7h-3.3l-5.4 11.7-8.1-17.6h-3.4l11.5 24.1z"/></g>
</symbol>
<symbol id="medal" viewBox="0 0 512 512"><path d="M486.5 420.1L380.9 314.5l42.7-15.5c3.6-1.3 5.8-5.1 5.1-8.9l-11.4-64.9 32.9-57.1c1.9-3.4 1.2-7.6-1.8-10.1L398 115.7l-11.4-64.9c-.7-3.8-4-6.6-7.9-6.6h-65.9L262.4 1.9c-3-2.5-7.3-2.5-10.3 0l-50.5 42.3h-65.9c-3.9 0-7.2 2.8-7.9 6.6l-11.4 64.9L66 158c-3 2.5-3.7 6.8-1.8 10.1l32.9 57.1-11.4 64.9c-.7 3.8 1.5 7.6 5.1 8.9l40.9 14.9L25.5 420.1c-2.2 2.2-2.9 5.5-1.9 8.4 1.1 2.9 3.7 5 6.8 5.2l65.5 5.5 5.5 65.5c.3 3.1 2.3 5.8 5.2 6.8.9.3 1.8.5 2.7.5 2.1 0 4.1-.8 5.6-2.3l141.1-141 140.9 140.9c1.5 1.5 3.6 2.3 5.6 2.3.9 0 1.9-.2 2.7-.5 2.9-1.1 5-3.7 5.2-6.8l5.5-65.5 65.5-5.5c3.1-.3 5.8-2.3 6.8-5.2 1.2-2.8.5-6.1-1.7-8.3zm-370.6 66.1l-4.6-55.1c-.3-3.9-3.4-7-7.3-7.3l-55-4.6 99.3-99.3 4.5 1.6 32.9 57.1c1.5 2.5 4.1 4 6.9 4 .9 0 1.8-.2 2.7-.5l38.9-14.2-118.3 118.3zm147.8-141.3l-3.8-1.4c-1.8-.6-3.7-.6-5.5 0l-5.6 2-52.7 19.2-31-53.8c-.9-1.6-2.4-2.9-4.2-3.5l-12-4.4-46.4-16.9 10.8-61.1c.3-1.9 0-3.8-.9-5.4l-31-53.8 47.6-39.9c1.4-1.2 2.4-2.9 2.7-4.7l10.8-61.1h62.1c1.9 0 3.7-.7 5.1-1.9l47.6-39.9 47.6 39.9c1.4 1.2 3.3 1.9 5.1 1.9h62l10.8 61.1c.3 1.8 1.3 3.5 2.7 4.7l47.6 39.9-31 53.8c-.9 1.6-1.3 3.5-.9 5.4l10.8 61.1-48.2 17.5-10.2 3.7c-1.8.6-3.2 1.9-4.2 3.5l-31 53.8-54.7-19.7c.1 0 0 0 0 0zm144.2 78.9c-3.9.3-7 3.4-7.3 7.3l-4.6 55.1-119.7-119.7 42.8 15.6c.9.3 1.8.5 2.7.5 2.8 0 5.5-1.5 6.9-4l32.9-57.1 2.6-1 98.7 98.7-55 4.6z"/><path d="M256 68.5c-70.1 0-127.2 57.1-127.2 127.2S185.9 322.9 256 322.9s127.2-57.1 127.2-127.2S326.1 68.5 256 68.5zm0 238.5c-61.3 0-111.2-49.9-111.2-111.2S194.7 84.5 256 84.5c61.3 0 111.2 49.9 111.2 111.2S317.3 307 256 307z"/><path d="M347.9 170.3c-1.1-3.3-4.1-5.5-7.6-5.5h-58.9l-18.2-56c-1.1-3.3-4.1-5.5-7.6-5.5s-6.5 2.2-7.6 5.5l-18.2 56h-58.9c-3.5 0-6.5 2.2-7.6 5.5-1.1 3.3.1 6.9 2.9 8.9l47.7 34.6-18.2 56c-1.1 3.3.1 6.9 2.9 8.9 1.4 1 3 1.5 4.7 1.5s3.3-.5 4.7-1.5l47.7-34.6 47.7 34.6c2.8 2 6.6 2 9.4 0 2.8-2 4-5.6 2.9-8.9l-18.2-56 47.7-34.6c2.6-2 3.8-5.6 2.7-8.9zm-64.7 34.1c-2.8 2-4 5.6-2.9 8.9l12.4 38.2-32.5-23.6c-2.8-2-6.6-2-9.4 0l-32.5 23.6 12.4-38.2c1.1-3.3-.1-6.9-2.9-8.9l-32.5-23.6h40.2c3.5 0 6.5-2.2 7.6-5.5l12.4-38.2 12.4 38.2c1.1 3.3 4.1 5.5 7.6 5.5h40.2l-32.5 23.6z"/>
</symbol>
<symbol id="mouse" viewBox="0 0 296.6 296.6"><path d="M282.3 76.9h-43.7c.5-1.5.9-3.1.9-4.8 0-7.9-6.4-14.3-14.3-14.3h-4.8V15c0-7.9-6.4-14.3-14.3-14.3H91.8C83.9.7 77.5 7.1 77.5 15v38c0 2.6-2.1 4.8-4.8 4.8H29.9v-9.5c0-7.9-6.4-14.3-14.3-14.3H1.3v57.1h14.3c7.9 0 14.3-6.4 14.3-14.3v-9.5h42.9c7.9 0 14.3-6.4 14.3-14.3V15c0-2.6 2.1-4.8 4.8-4.8h114.3c2.6 0 4.8 2.1 4.8 4.8v42.9h-4.8c-7.9 0-14.3 6.4-14.3 14.3 0 1.7.3 3.3.9 4.8H149c-7.9 0-14.3 6.4-14.3 14.3H42.5L12.8 115l29.8 23.8h92.1v9.5H63.5l-40.4-5.1L0 172.1 23.1 201l40.4-5.1h71.1v14.3H1.3v71.4h168.5c13 9 28.8 14.3 45.8 14.3 44.6 0 81-36.3 81-81V91.1c0-7.8-6.4-14.2-14.3-14.2zm-261.9 0c0 2.6-2.1 4.8-4.8 4.8h-4.8V43.5h4.8c2.6 0 4.8 2.1 4.8 4.8v28.6zm19 47.2L28 115l11.4-9.1v18.2zm95.3 5.1H49v-9.5h85.7v9.5zm0-19H49v-9.5h85.7v9.5zM58.5 187l-31.3 3.9-11.2-14h5.3c2 5.5 7.2 9.5 13.4 9.5 7.9 0 14.3-6.4 14.3-14.3s-6.4-14.3-14.3-14.3c-6.2 0-11.4 4-13.4 9.5H16l11.2-14 31.3 3.9V187zm-28.6-14.9c0-2.6 2.1-4.8 4.8-4.8s4.8 2.1 4.8 4.8-2.1 4.8-4.8 4.8-4.8-2.2-4.8-4.8zm104.8 14.3H87.1v-28.6h-9.5v28.6H68v-28.6h66.7v28.6zm71.4-119.1h19c2.6 0 4.8 2.1 4.8 4.8s-2.1 4.8-4.8 4.8h-19c-2.6 0-4.8-2.1-4.8-4.8 0-2.6 2.2-4.8 4.8-4.8zM10.9 272.1v-52.4h9.5V234h9.5v-14.3h9.5v19H49v-19h9.5V234H68v-14.3h9.5v19H87v-19h9.5V234h9.5v-14.3h9.5v19h9.5v-19h9.8a81 81 0 0 0 23.4 52.4H10.9zM287.1 215c0 39.4-32 71.4-71.4 71.4s-71.4-32-71.4-71.4V143.6h142.9V215zm0-81h-66.7V95.9h-9.5V134h-66.7V91.1c0-2.6 2.1-4.8 4.8-4.8h133.2c2.6 0 4.8 2.1 4.8 4.8V134z"/>
</symbol>
<symbol id="multimedia" viewBox="0 0 512 512"><path d="M504 4.3H8c-4.4 0-8 3.6-8 8v487.4c0 4.4 3.6 8 8 8h496c4.4 0 8-3.6 8-8V12.3c0-4.4-3.6-8-8-8zm-8 487.4H16V122.9h480v368.8zm0-384.8H16V20.3h480v86.6z"/><path d="M427 38.5h-94c-4.4 0-8 3.6-8 8s3.6 8 8 8h94c4.4 0 8-3.6 8-8s-3.5-8-8-8zM469.8 38.5h-17.1c-4.4 0-8 3.6-8 8s3.6 8 8 8h17.1c4.4 0 8-3.6 8-8s-3.6-8-8-8zM264.6 29.9c-18.6 0-33.7 15.1-33.7 33.7s15.1 33.7 33.7 33.7 33.7-15.1 33.7-33.7-15.2-33.7-33.7-33.7zm0 51.3c-9.7 0-17.6-7.9-17.6-17.6S254.8 46 264.6 46c9.7 0 17.6 7.9 17.6 17.6s-7.9 17.6-17.6 17.6zM170.5 29.9c-18.6 0-33.7 15.1-33.7 33.7s15.1 33.7 33.7 33.7 33.7-15.1 33.7-33.7-15.1-33.7-33.7-33.7zm0 51.3c-9.7 0-17.6-7.9-17.6-17.6S160.8 46 170.5 46s17.6 7.9 17.6 17.6-7.9 17.6-17.6 17.6zM76.4 29.9c-18.6 0-33.7 15.1-33.7 33.7s15.1 33.7 33.7 33.7 33.7-15.1 33.7-33.7S95 29.9 76.4 29.9zm0 51.3c-9.7 0-17.6-7.9-17.6-17.6S66.7 46 76.4 46 94 53.9 94 63.6s-7.8 17.6-17.6 17.6zM168.9 232.1c.2-6.4-2.2-12.5-6.6-17.2s-10.4-7.3-16.8-7.5c-6.4-.2-12.5 2.2-17.2 6.6l-81.2 77c-4.9 4.6-7.6 11.1-7.5 17.8s3 13.1 8 17.6l81.2 72.7c4.4 4 10.1 6.1 16 6.1 6.8 0 13.4-2.9 17.9-8 8.8-9.9 8-25.1-1.9-34L99 307.9l62.3-59c4.7-4.4 7.4-10.4 7.6-16.8zm-18.6 5.1l-68.6 65c-1.6 1.5-2.5 3.7-2.5 5.9s1 4.4 2.7 5.9l68.3 61.1c3.3 2.9 3.6 8 .6 11.3-1.5 1.7-3.7 2.7-6 2.7-2 0-3.9-.7-5.3-2l-81.2-72.7c-1.7-1.5-2.6-3.6-2.7-5.9 0-2.2.9-4.4 2.5-5.9l81.2-77c1.5-1.4 3.4-2.2 5.5-2.2h.2c2.1.1 4.1.9 5.6 2.5s2.3 3.6 2.2 5.7c0 2.2-.9 4.2-2.5 5.6zM464.9 290.9l-81.2-77c-9.6-9.1-24.9-8.7-34 .9-9.1 9.6-8.7 24.9.9 34l62.3 59-61.8 55.3c-9.9 8.8-10.7 24.1-1.9 34 4.6 5.1 11.1 8 17.9 8 5.9 0 11.6-2.2 16-6.1l81.2-72.7c5-4.5 7.9-10.9 8-17.6.2-6.7-2.5-13.2-7.4-17.8zm-11.2 23.4L372.5 387c-1.5 1.3-3.4 2-5.3 2-2.3 0-4.4-.9-6-2.7-2.9-3.3-2.7-8.4.6-11.3l68.3-61.1c1.7-1.5 2.6-3.6 2.7-5.9 0-2.2-.9-4.4-2.5-5.9l-68.6-65c-3.2-3-3.3-8.1-.3-11.3 1.6-1.7 3.7-2.5 5.8-2.5 2 0 4 .7 5.5 2.2l81.2 77c1.6 1.5 2.5 3.7 2.5 5.9 0 2.3-1 4.5-2.7 5.9zM317.7 233.7c-1.7-6.2-5.7-11.4-11.2-14.6-11.5-6.6-26.2-2.6-32.8 8.8L192.5 369c-6.6 11.5-2.6 26.2 8.8 32.8 3.6 2.1 7.8 3.2 12 3.2 8.6 0 16.6-4.6 20.9-12.1L315.3 252c3.2-5.6 4.1-12.1 2.4-18.3zM301.4 244l-81.2 141.1c-1.4 2.5-4.1 4-7 4-1.4 0-2.7-.4-4-1.1-3.8-2.2-5.2-7.1-2.9-10.9L287.5 236c1.5-2.6 4.2-4 7-4 1.4 0 2.7.3 4 1.1 1.9 1.1 3.2 2.8 3.7 4.9.6 1.9.3 4.1-.8 6z"/>
</symbol>
<symbol id="pen" viewBox="0 0 512 512"><path d="M334.3 305.2l-21.8-139.3 13.8-157c.2-2.3-.6-4.6-2.1-6.3-1.6-1.6-3.8-2.6-6.1-2.6h-121c-2.3 0-4.5 1-6 2.6s-2.3 3.9-2.2 6.2l11.5 153.7c-.3.7-.6 1.5-.7 2.3l-21.9 140.3c-.3 1.7 0 3.4.8 4.9l70.2 140.3c1.4 2.8 4.2 4.5 7.4 4.5s6-1.8 7.4-4.5L333.8 310c.5-1.4.8-3.1.5-4.8zM309.1 16.4l-12.4 141.4h-80.2L205.9 16.4h103.2zm-53.1 273c-12.4 0-22.5-10.1-22.5-22.5s10.1-22.5 22.5-22.5 22.5 10.1 22.5 22.5-10.1 22.5-22.5 22.5zm8.2 122.5V305c17.5-3.8 30.7-19.4 30.7-38 0-21.5-17.5-38.9-38.9-38.9s-38.9 17.5-38.9 38.9c0 18.6 13.2 34.3 30.7 38v106.9l-53.4-106.8 20.4-130.8h82.4l20.4 130.8-53.4 106.8z"/><path d="M418.3 451.7h-43.9c-4.5 0-8.2 3.7-8.2 8.2v13.7H145.8v-13.7c0-4.5-3.7-8.2-8.2-8.2H93.7c-4.5 0-8.2 3.7-8.2 8.2v43.9c0 4.5 3.7 8.2 8.2 8.2h43.9c4.5 0 8.2-3.7 8.2-8.2v-13.7h220.4v13.7c0 4.5 3.7 8.2 8.2 8.2h43.9c4.5 0 8.2-3.7 8.2-8.2v-43.9c0-4.5-3.7-8.2-8.2-8.2zm-288.9 43.9H102v-27.4h27.4v27.4zm280.6 0h-27.4v-27.4H410v27.4z"/><path d="M457.7 254.4c-4.5 0-8.2 3.7-8.2 8.2 0 106.7-86.8 193.5-193.5 193.5S62.5 369.3 62.5 262.6c0-4.5-3.7-8.2-8.2-8.2-4.5 0-8.2 3.7-8.2 8.2 0 115.8 94.2 210 210 210s210-94.2 210-210c-.1-4.6-3.8-8.2-8.4-8.2z"/>
</symbol>
<symbol id="technology" viewBox="0 0 512 512"><path d="M365.5 95.4c-30-29.5-69.7-45.5-111.8-44.9-85.9 1.2-154.9 72.2-153.7 158.2.5 39.9 16.1 77.8 44 106.5 21.6 22.3 33.6 51.2 33.6 81.4v21.1c0 29.6 19 54.8 45.4 64.2v4.2c0 14.4 11.7 26.1 26.1 26.1h14c14.4 0 26.1-11.7 26.1-26.1v-4.2c26.4-9.4 45.4-34.6 45.4-64.2v-21.1c0-30.2 11.9-59.1 33.5-81.3C396.4 286 412 247.4 412 206.6c0-42.1-16.5-81.6-46.5-111.2zm-94.8 390.5c0 4.2-3.4 7.7-7.7 7.7h-14c-4.2 0-7.7-3.4-7.7-7.7v-.4c1.4.1 2.8.1 4.3.1h20.8c1.4 0 2.9-.1 4.3-.1v.4zm-4.3-18.7h-20.8c-20.2 0-37.6-12.1-45.3-29.4h111.5c-7.8 17.3-25.2 29.4-45.4 29.4zm49.7-49.6v1.8H196V405.7h120.2l-.1 11.9zM256 198.8c5.6 0 11-1.1 16.1-3.1l5.8 8.6c-14.3 4-29.5 4-43.9 0l5.8-8.6c5.2 2.1 10.6 3.1 16.2 3.1zm-5.5-19l5.5-8.2 5.5 8.2c-1.8.4-3.6.6-5.5.6s-3.7-.2-5.5-.6zM283 222v165.3h-17.8v-162c6-.5 11.9-1.6 17.8-3.3zm-36.2 3.3v162H229V222c5.9 1.7 11.8 2.8 17.8 3.3zm107.9 77.1c-22.7 23.4-36.2 53.3-38.3 84.9h-15V209.1c0-1.8-.5-3.6-1.6-5.1l-36.2-54c-1.7-2.5-4.6-4.1-7.6-4.1-3.1 0-5.9 1.5-7.6 4.1l-36.2 54c-1 1.5-1.6 3.3-1.6 5.1v178.2h-15c-2.2-31.6-15.6-61.5-38.4-85-24.5-25.3-38.3-58.7-38.8-93.9-.5-36.6 13.4-71.3 39.1-97.7 25.7-26.4 60-41.3 96.5-41.8h2c36.4 0 70.7 14 96.6 39.6 26.4 26.1 41 60.9 41 98 0 36.1-13.8 70.1-38.9 95.9z"/><path d="M290.4 86c-4.9-1.4-10 1.4-11.4 6.3-1.4 4.9 1.4 10 6.3 11.4 45.8 13 77.7 55.3 77.7 102.9 0 5.1 4.1 9.2 9.2 9.2s9.2-4.1 9.2-9.2c0-55.7-37.4-105.3-91-120.6zM262.9 81.4c-2.9-.2-5.8-.2-8.7-.2-5.1.1-9.1 4.2-9.1 9.3.1 5 4.2 9.1 9.2 9.1h.1c2.5 0 5 0 7.4.1h.5c4.9 0 8.9-3.8 9.2-8.7.3-5-3.5-9.4-8.6-9.6zM455.3 199.3h-16.1c-5.1 0-9.2 4.1-9.2 9.2s4.1 9.2 9.2 9.2h16.1c5.1 0 9.2-4.1 9.2-9.2 0-5-4.1-9.2-9.2-9.2zM72.7 199.3h-16c-5.1 0-9.2 4.1-9.2 9.2s4.1 9.2 9.2 9.2h16c5.1 0 9.2-4.1 9.2-9.2 0-5-4.1-9.2-9.2-9.2zM436.6 104.3c-2.5-4.4-8.2-5.9-12.6-3.4l-13.9 8c-4.4 2.5-5.9 8.2-3.4 12.6 1.7 3 4.8 4.6 8 4.6 1.6 0 3.1-.4 4.6-1.2l13.9-8c4.4-2.6 5.9-8.2 3.4-12.6zM105.2 295.6c-2.5-4.4-8.2-5.9-12.6-3.4l-13.9 8c-4.4 2.5-5.9 8.2-3.4 12.6 1.7 3 4.8 4.6 8 4.6 1.6 0 3.1-.4 4.6-1.2l13.9-8c4.5-2.6 6-8.2 3.4-12.6zM360.3 27.9c-4.4-2.5-10-1-12.6 3.4l-8 13.9c-2.5 4.4-1 10 3.4 12.6 1.4.8 3 1.2 4.6 1.2 3.2 0 6.3-1.6 8-4.6l8-13.9c2.5-4.4 1-10-3.4-12.6zM256 0c-5.1 0-9.2 4.1-9.2 9.2v16.1c0 5.1 4.1 9.2 9.2 9.2s9.2-4.1 9.2-9.2V9.2c0-5.1-4.1-9.2-9.2-9.2zM172.3 45.2l-8-13.9c-2.5-4.4-8.2-5.9-12.6-3.4-4.4 2.5-5.9 8.2-3.4 12.6l8 13.9c1.7 3 4.8 4.6 8 4.6 1.6 0 3.1-.4 4.6-1.2 4.5-2.6 6-8.2 3.4-12.6zM101.9 108.9l-13.9-8c-4.4-2.5-10-1-12.6 3.4-2.5 4.4-1 10 3.4 12.6l13.9 8c1.4.8 3 1.2 4.6 1.2 3.2 0 6.3-1.6 8-4.6 2.5-4.4 1-10-3.4-12.6zM433.2 300.2l-13.9-8c-4.4-2.5-10-1-12.6 3.4-2.5 4.4-1 10 3.4 12.6l13.9 8c1.4.8 3 1.2 4.6 1.2 3.2 0 6.3-1.6 8-4.6 2.5-4.4 1-10-3.4-12.6z"/>
</symbol>
<symbol id="technology2" viewBox="0 0 295.2 295.2"><path d="M271.4 85.7h-57.1V57.1c0-7.9-6.4-14.3-14.3-14.3s-14.3 6.4-14.3 14.3v28.6H42.9C29.7 85.7 19 96.4 19 109.5v76.2h-4.8c-2.6 0-4.8-2.1-4.8-4.8V57.1c0-2.6 2.1-4.8 4.8-4.8h133.3c7.9 0 14.3-6.4 14.3-14.3V0h-9.5v38.1c0 2.6-2.1 4.8-4.8 4.8H14.3C6.4 42.9 0 49.3 0 57.1V181c0 7.9 6.4 14.3 14.3 14.3H19v76.2c0 13.1 10.7 23.8 23.8 23.8h228.6c13.1 0 23.8-10.7 23.8-23.8v-162c0-13.1-10.6-23.8-23.8-23.8zm-76.2-28.6c0-2.6 2.1-4.8 4.8-4.8s4.8 2.1 4.8 4.8v81h-9.5l-.1-81zm0 90.5h9.5v57.1h-9.5v-57.1zm9.6 66.7v3.3l-4.8 7.1-4.8-7.1v-3.3h9.6zm-9.6 20.5v12.8h9.5v-12.8l9.5-14.3V119h47.6v142.9H85.7V119h100v101.4l9.5 14.4zM42.9 95.2h142.9v14.3H28.6c0-7.9 6.4-14.3 14.3-14.3zm-14.3 95.3V119h47.6v71.4c0-13.1-10.7-23.8-23.8-23.8-13.1.1-23.8 10.7-23.8 23.9 0 13.1 10.7 23.8 23.8 23.8 13.1 0 23.8-10.7 23.8-23.8v71.4H28.6v-71.4zm38.1 0c0 7.9-6.4 14.3-14.3 14.3s-14.3-6.4-14.3-14.3 6.4-14.3 14.3-14.3 14.3 6.4 14.3 14.3zm219 80.9c0 7.9-6.4 14.3-14.3 14.3H42.9c-7.9 0-14.3-6.4-14.3-14.3h242.9V109.5h-57.1V95.2h57.1c7.9 0 14.3 6.4 14.3 14.3v161.9z"/><circle cx="52.4" cy="190.5" r="4.8"/><path d="M38.1 147.6h28.6v9.5H38.1zM38.1 128.6h28.6v9.5H38.1zM38.1 242.9h28.6v9.5H38.1zM38.1 223.8h28.6v9.5H38.1z"/>
</symbol>
<symbol id="technology3" viewBox="0 0 512 512"><path d="M500.5 131.4H340.1l-11.8-74.7c-.6-3.9-4-6.8-7.9-6.8H191.7c-4 0-7.3 2.9-7.9 6.8L172 131.4h-40.8V96.5c0-4.4-3.6-8-8-8H63c-4.4 0-8 3.6-8 8v34.8H11.5c-4.4 0-8 3.6-8 8V504c0 4.4 3.6 8 8 8h488.9c4.4 0 8-3.6 8-8V139.4c.1-4.4-3.5-8-7.9-8zM198.5 66h114.9l10.3 65.4H188.2L198.5 66zM71 104.6h44v26.8H71v-26.8zm421.4 391.3H19.6V237.5h136c-20.5 23.9-32 54.4-32 86.3 0 21.4 5.2 42.4 15 61.2-11.7 6.6-19.3 19.1-19.3 33.1 0 21 17.1 38.1 38.1 38.1 13.2 0 25.4-7 32.2-17.9 20.1 11.7 42.9 17.9 66.4 17.9 73 0 132.4-59.4 132.4-132.4 0-31.9-11.5-62.4-32-86.3h136v258.4zM157 384.9s-.1 0 0 0c-.1-.1-.1-.1 0 0-11.3-18.4-17.3-39.5-17.3-61.1 0-33.9 14.8-66.1 40.5-88.3 21.1-18.1 48-28.1 75.8-28.1 27.8 0 54.7 10 75.8 28.1 25.8 22.2 40.5 54.3 40.5 88.3 0 64.1-52.2 116.3-116.3 116.3-23.4 0-46-6.9-65.3-20.1h-.1c-13.5-9.1-25.1-21.3-33.6-35.1zm19.2 44.6c-3.9 6.5-11 10.7-18.8 10.7-12.1 0-22-9.9-22-22 0-8.2 4.5-15.6 11.5-19.3 8 11.6 18 22 29.3 30.6zm316.2-208.1H340c-23.6-19.4-53.3-30-84-30s-60.3 10.6-84 30H19.6v-74h472.8v74z"/><path d="M256 234.3c-49.4 0-89.5 40.2-89.5 89.5s40.2 89.5 89.5 89.5 89.5-40.2 89.5-89.5-40.1-89.5-89.5-89.5zm0 163c-40.5 0-73.4-32.9-73.4-73.4s32.9-73.4 73.4-73.4 73.4 32.9 73.4 73.4-32.9 73.4-73.4 73.4z"/><path d="M297 352.4c-3.2-3.1-8.3-3-11.4.2-7.9 8.1-18.4 12.6-29.6 12.6-4.4 0-8 3.6-8 8s3.6 8 8 8c15.6 0 30.3-6.2 41.2-17.5 3.1-3.2 3-8.2-.2-11.3zM256 266.5c-4.4 0-8 3.6-8 8s3.6 8 8 8c22.8 0 41.3 18.5 41.3 41.3 0 3.7-.5 7.3-1.4 10.8-1.2 4.3 1.4 8.7 5.7 9.9.7.2 1.4.3 2.1.3 3.5 0 6.8-2.4 7.8-5.9 1.3-4.9 2-9.9 2-15-.1-31.7-25.9-57.4-57.5-57.4zM453.3 260c-4.4 0-8 3.6-8 8v193c0 4.4 3.6 8 8 8s8-3.6 8-8V268c0-4.4-3.6-8-8-8zM453.3 157.1c-4.4 0-8 3.6-8 8v34.3c0 4.4 3.6 8 8 8s8-3.6 8-8v-34.3c0-4.4-3.6-8-8-8zM397.3 48.5H364c-4.4 0-8 3.6-8 8s3.6 8 8 8h33.4c4.4 0 8-3.6 8-8s-3.6-8-8.1-8zM381.6 99.4l-21.2-21.2c-3.1-3.1-8.2-3.1-11.4 0-3.1 3.1-3.1 8.2 0 11.4l21.2 21.2c1.6 1.6 3.6 2.4 5.7 2.4s4.1-.8 5.7-2.4c3.1-3.2 3.1-8.3 0-11.4zM381.8 2.4c-3.1-3.1-8.2-3.1-11.4 0l-21.2 21.2c-3.1 3.1-3.1 8.2 0 11.4 1.6 1.6 3.6 2.4 5.7 2.4s4.1-.8 5.7-2.4l21.2-21.2c3.1-3.2 3.1-8.3 0-11.4z"/>
</symbol>
<symbol id="technology4" viewBox="0 0 295.2 295.2"><path d="M105.2 124c-31.6 0-57.4 25.7-57.4 57.4 0 4.8.6 9.6 1.9 14.5l2.1 8 75.9-75.9-8-2.1c-4.9-1.2-9.8-1.9-14.5-1.9zm-47.7 60.8c-.1-1.2-.1-2.3-.1-3.4 0-26.4 21.5-47.8 47.8-47.8 1.1 0 2.3 0 3.4.1l-51.1 51.1z"/><path d="M273.6 66.7c-5.8 0-11.2 2.2-15.3 6.3l-10.8 10.7V14.3c0-7.9-6.4-14.3-14.3-14.3H61.9C54 0 47.6 6.4 47.6 14.3v79.1C19 112.2 0 144.6 0 181.4c0 28.1 10.9 54.5 30.8 74.4l3.4 3.4 13.4-13.4V281c0 7.9 6.4 14.3 14.3 14.3h171.4c7.9 0 14.3-6.4 14.3-14.3V144.8l41.3-41.3c4.1-4.1 6.3-9.5 6.3-15.3 0-11.8-9.6-21.5-21.6-21.5zM145.2 209.9l-5.2-5.2 98-98 5.2 5.2-98 98zm2 15.5l-12.9 2.1 2.1-12.9 10.8 10.8zM57.1 14.3c0-2.6 2.1-4.8 4.8-4.8h171.4c2.6 0 4.8 2.1 4.8 4.8v23.8h-181V14.3zm0 33.3h181v45.6L128.9 202.5l-6.1 36.7 36.7-6.1 78.7-78.7v93.3h-181v-11.5L183 110.4l-3.4-3.4c-19.9-19.9-46.3-30.8-74.4-30.8-17.3 0-33.6 4.2-48 11.7-.1-.1-.1-40.3-.1-40.3zm-22.8 198c-1.2-1.4-2.3-2.8-3.5-4.2l7.6-5.5-5.6-7.7-7.6 5.5c-3.8-5.7-6.9-11.8-9.4-18.2l9-2.9-2.9-9.1-9 2.7c-1.8-6.6-2.8-10.9-3.1-20.4H19v-9.5H9.8c.3-4.8 1.4-13.5 3.2-20l8.9 3 2.9-9-8.9-2.9c2.5-6.4 5.5-12.5 9.3-18.2l7.6 5.5 5.6-7.7-7.6-5.5c4.3-5.3 9.1-10.2 14.5-14.5l5.5 7.6 7.7-5.6-5.5-7.6c5.7-3.7 11.8-6.8 18.2-9.3l2.9 8.9 9.1-2.9-3.2-9c6.5-1.8 15.2-2.8 20-3.2v9.3h9.5v-9.3c9.5.3 13.9 1.4 20.4 3.1l-2.8 9 9.1 2.9 3-9c6.4 2.4 12.5 5.6 18.2 9.4l-5.5 7.6 7.7 5.6 5.5-7.6c1.4 1.1 2.9 2.3 4.2 3.5l-135 135.2zm108.6 25.8c0-2.6 2.1-4.8 4.8-4.8s4.8 2.1 4.8 4.8-2.1 4.8-4.8 4.8c-2.7 0-4.8-2.1-4.8-4.8zm95.2 9.6c0 2.6-2.1 4.8-4.8 4.8h-85.7c7.9 0 14.3-6.4 14.3-14.3s-6.4-14.3-14.3-14.3-14.3 6.4-14.3 14.3 6.4 14.3 14.3 14.3H61.9c-2.6 0-4.8-2.1-4.8-4.8v-23.8h181V281zm-81-59.2l-5.2-5.2 98-98 5.2 5.2-98 98zm104.8-104.7L244.8 100l7.6-7.6 17.1 17.1-7.6 7.6zm20.3-20.3l-6 6-17.1-17.1 6-6c2.3-2.3 5.3-3.5 8.5-3.5 6.7 0 12.1 5.4 12.1 12.1 0 3.2-1.2 6.2-3.5 8.5z"/><path d="M119 19h57.1v9.5H119z"/>
</symbol>
<symbol id="transport" viewBox="0 0 512 512"><path d="M251.7 169.6c-30.9 0-56 25.1-56 56s25.1 56 56 56 56-25.1 56-56-25.2-56-56-56zm0 95.6c-21.9 0-39.7-17.8-39.7-39.7s17.8-39.7 39.7-39.7 39.7 17.8 39.7 39.7c-.1 21.9-17.9 39.7-39.7 39.7zM251.7 395.7c-23.7 0-42.9 19.3-42.9 42.9 0 20.9 30.4 62.1 36.4 70.1 1.5 2 3.9 3.2 6.5 3.2s5-1.2 6.5-3.2c6.1-8 36.4-49.3 36.4-70.1 0-23.7-19.3-42.9-42.9-42.9zm0 94.3C239 471.9 225 448.3 225 438.6c0-14.7 11.9-26.6 26.6-26.6 14.7 0 26.6 11.9 26.6 26.6.1 9.7-13.9 33.3-26.5 51.4z"/><path d="M448.4 371.7l-79.9-71.5V147.3v-.2-.5-.4c0-.1 0-.3-.1-.4 0-.1-.1-.2-.1-.4 0-.1-.1-.3-.1-.4 0-.1-.1-.3-.1-.4 0-.1-.1-.3-.1-.4-.1-.1-.1-.3-.2-.4-.1-.1-.1-.2-.2-.3-.1-.1-.1-.3-.2-.4-.1-.1-.1-.2-.2-.3-.1-.1-.2-.3-.3-.4 0-.1-.1-.1-.1-.2L258.1 3.1c-1.5-2-3.9-3.1-6.4-3.1-2.5 0-4.9 1.2-6.4 3.1L136.5 142.3c0 .1-.1.1-.1.2-.1.1-.2.3-.3.4-.1.1-.1.2-.2.3-.1.1-.1.3-.2.4-.1.1-.1.2-.2.3-.1.1-.1.3-.2.4-.1.1-.1.2-.1.4 0 .1-.1.2-.1.4 0 .1-.1.3-.1.4 0 .1-.1.2-.1.4 0 .1 0 .3-.1.4v154l-79.9 71.5c-2.5 2.3-3.4 5.8-2.2 9 1.2 3.2 4.2 5.2 7.6 5.2H443c3.4 0 6.4-2.1 7.6-5.2 1.2-3.3.3-6.9-2.2-9.1zm-313.6-2.1H81.7l53.1-47.5v47.5zM251.7 21.4l92 117.7h-184l92-117.7zm100.5 348.2H151.1V312h201.1v57.6zm0-73.9H151.1V155.4h201.1v140.3zm16.3 73.9v-47.5l53.1 47.5h-53.1z"/><path d="M261.8 202.4c-3.2-3.2-8.3-3.2-11.5 0l-21.7 21.7c-3.2 3.2-3.2 8.3 0 11.5 1.6 1.6 3.7 2.4 5.8 2.4s4.2-.8 5.8-2.4l21.7-21.7c3-3.1 3-8.3-.1-11.5zM274.8 224.1c-3.2-3.2-8.3-3.2-11.5 0l-13 13c-3.2 3.2-3.2 8.3 0 11.5 1.6 1.6 3.7 2.4 5.8 2.4s4.2-.8 5.8-2.4l13-13c3.1-3.1 3.1-8.3-.1-11.5zM486.5 252.2c-4.5 0-8.2 3.6-8.2 8.2v147.8c0 4.5 3.6 8.2 8.2 8.2 4.5 0 8.2-3.6 8.2-8.2V260.3c-.1-4.5-3.7-8.1-8.2-8.1zM434.3 217.4c-4.5 0-8.2 3.6-8.2 8.2v52.2c0 4.5 3.6 8.2 8.2 8.2 4.5 0 8.2-3.6 8.2-8.2v-52.2c-.1-4.5-3.7-8.2-8.2-8.2zM25.5 260.9c-4.5 0-8.2 3.6-8.2 8.2V443c0 4.5 3.6 8.2 8.2 8.2s8.2-3.6 8.2-8.2V269c0-4.5-3.7-8.1-8.2-8.1zM77.7 182.6c-4.5 0-8.2 3.6-8.2 8.2V269c0 4.5 3.7 8.2 8.2 8.2s8.2-3.6 8.2-8.2v-78.3c0-4.4-3.7-8.1-8.2-8.1z"/>
</symbol>
<symbol id="web-design" viewBox="0 0 512 512"><path d="M504 4.3H8c-4.4 0-8 3.6-8 8v487.4c0 4.4 3.6 8 8 8h496c4.4 0 8-3.6 8-8V12.3c0-4.4-3.6-8-8-8zm-8 487.4H16V122.9h480v368.8zm0-384.8H16V20.3h480v86.6z"/><path d="M427 38.5h-94c-4.4 0-8 3.6-8 8s3.6 8 8 8h94c4.4 0 8-3.6 8-8s-3.5-8-8-8zM469.8 38.5h-17.1c-4.4 0-8 3.6-8 8s3.6 8 8 8h17.1c4.4 0 8-3.6 8-8s-3.6-8-8-8zM264.6 29.9c-3.8 0-7.6.6-11.2 1.9C240 36.6 231 49.3 231 63.5s9 27 22.4 31.7c3.6 1.3 7.4 1.9 11.2 1.9 18.6 0 33.7-15.1 33.7-33.7s-15.2-33.5-33.7-33.5zm0 51.3c-2 0-4-.3-5.9-1-7-2.5-11.8-9.2-11.8-16.6s4.7-14.1 11.8-16.6c1.9-.7 3.9-1 5.9-1 9.7 0 17.6 7.9 17.6 17.6s-7.9 17.6-17.6 17.6zM170.5 29.9c-18.6 0-33.7 15.1-33.7 33.7s15.1 33.7 33.7 33.7 33.7-15.1 33.7-33.7-15.1-33.7-33.7-33.7zm0 51.3c-9.7 0-17.6-7.9-17.6-17.6S160.8 46 170.5 46s17.6 7.9 17.6 17.6-7.9 17.6-17.6 17.6zM76.4 29.9c-18.6 0-33.7 15.1-33.7 33.7s15.1 33.7 33.7 33.7 33.7-15.1 33.7-33.7S95 29.9 76.4 29.9zm0 51.3c-9.7 0-17.6-7.9-17.6-17.6S66.7 46 76.4 46 94 53.9 94 63.6s-7.8 17.6-17.6 17.6zM480.5 214.5l-84.7-84.7c-3.1-3.1-8.2-3.1-11.3 0l-54 54H72.2c-4.4 0-8 3.6-8 8s3.6 8 8 8h242.3L250.3 264l-56.6 56.6H72.2c-4.4 0-8 3.6-8 8s3.6 8 8 8h105.5L160.4 354s0 .1-.1.1l-.5.5-.2.2c-.1.1-.2.3-.3.4-.1.1-.1.2-.2.3-.1.1-.2.2-.2.4-.1.1-.1.3-.2.4 0 .1-.1.2-.1.3-.1.2-.1.3-.2.5 0 .1-.1.2-.1.2-.1.2-.1.4-.2.6v.1l-19.9 99.3h-66c-4.4 0-8 3.6-8 8s3.6 8 8 8H151.1c2.1 0 4.1-.8 5.5-2.2l35-7L252 452h.1c.2 0 .4-.1.6-.2.1 0 .2-.1.3-.1.2-.1.3-.1.5-.2.1 0 .2-.1.3-.2.1-.1.3-.1.4-.2.1-.1.3-.1.4-.2.1-.1.2-.1.3-.2.1-.1.3-.2.4-.3l.2-.2c.2-.1.3-.3.5-.5 0 0 .1 0 .1-.1l5.3-5.3L372 334.4l48-48 60.5-60.5c3.1-3.2 3.1-8.2 0-11.4zM202.7 334.4l59-59 68-68 15.9 15.9-152.4 152.3-15.9-15.9 25.4-25.3zm154.2-99.8l18.9 18.9-69.6 69.5-55.9 55.9-26.9 26.9-18.9-18.9 152.4-152.3zM155.1 455.3l3.8-18.9 15.1 15.1-18.9 3.8zm37.7-7.6l-30.2-30.2 8.3-41.6 16.6 16.6 30.2 30.2 16.6 16.6-41.5 8.4zM360.6 323l-110 110-15.9-15.9 26.9-26.9 55.9-55.9 69.6-69.6 15.9 15.9-42.4 42.4zm53.7-53.7l-21.5-21.5-30.2-30.2L341 196l49.1-49.1 73.3 73.3-49.1 49.1z"/><path d="M394.2 169.1c-3.1-3.1-8.2-3.1-11.3 0l-19.2 19.2c-3.1 3.1-3.1 8.2 0 11.3 1.6 1.6 3.6 2.3 5.7 2.3s4.1-.8 5.7-2.3l19.2-19.2c3-3.1 3-8.2-.1-11.3z"/>
</symbol></svg>