<svg xmlns="http://www.w3.org/2000/svg" xmlns:xlink="http://www.w3.org/1999/xlink" width="47" height="43" viewBox="0 0 47 43"><defs><path id="a" d="M74 174.14v25.72a3.15 3.15 0 0 1-3.16 3.14 3.15 3.15 0 0 1-3.16-3.14v-1.43l-9.4-2.95c.12.46.12.93-.03 1.39a2.55 2.55 0 0 1-3.18 1.62l-9-2.91a2.55 2.55 0 0 1-1.48-1.25 2.42 2.42 0 0 1 .57-3l-2.14-.67a2.5 2.5 0 0 1-2.5 2.3 2.5 2.5 0 0 1-2.52-2.51v-6.9a2.52 2.52 0 1 1 5.02-.21l24.66-7.77v-1.43a3.15 3.15 0 0 1 3.16-3.14c1.74 0 3.16 1.4 3.16 3.14zM56.23 194.9l-9.02-2.9a1.26 1.26 0 0 0-1.51 1.77c.16.29.43.52.74.61l9.02 2.91c.33.1.66.08.97-.07.29-.16.52-.43.62-.74.23-.65-.14-1.35-.82-1.58zm-14.45-11.35c0-.7-.56-1.25-1.26-1.25s-1.26.56-1.26 1.25v6.9c0 .7.56 1.25 1.26 1.25s1.26-.56 1.26-1.25zm25.9 13.59v-20.26l-24.64 7.77v4.72zm5.06-23a1.9 1.9 0 0 0-3.8 0v25.74a1.9 1.9 0 0 0 3.8 0z"/><mask id="c" width="2" height="2" x="-1" y="-1"><path fill="#fff" d="M36 169h39v35H36z"/><use xlink:href="#a"/></mask><filter id="b" width="67" height="65" x="22" y="159" filterUnits="userSpaceOnUse"><feOffset dy="2" in="SourceGraphic" result="FeOffset1051Out"/><feGaussianBlur in="FeOffset1051Out" result="FeGaussianBlur1052Out" stdDeviation="1.6 1.6"/></filter></defs><g transform="translate(-32 -167)"><g filter="url(#b)"><use fill="none" stroke-opacity=".3" stroke-width="0" mask="url(&quot;#c&quot;)" xlink:href="#a"/><use fill-opacity=".3" xlink:href="#a"/></g><use fill="#f8f8f8" xlink:href="#a"/><use fill="#fff" xlink:href="#a"/></g></svg>