<?xml version="1.0" encoding="utf-8"?>
<!-- Generator: Adobe Illustrator 21.0.2, SVG Export Plug-In . SVG Version: 6.00 Build 0)  -->
<svg version="1.1" id="Layer_1" xmlns="http://www.w3.org/2000/svg" xmlns:xlink="http://www.w3.org/1999/xlink" x="0px" y="0px"
	 viewBox="0 0 295.2 295.2" enable-background="new 0 0 295.2 295.2" xml:space="preserve">
<g>
	<g>
		<g>
			<path d="M204.8,64.7c-18.4-16.5-42.2-24-66.9-21.3c-38.6,4.3-70.2,35.3-75.2,73.7c-3.5,26.9,5.5,53.2,24.6,72.2
				c7.5,7.4,11.9,16.8,12.6,26.7c-5.5,2.7-9.4,8.4-9.4,14.9c0,4.7,1.9,8.9,5,11.9c-3.1,3-5,7.2-5,11.9s1.9,8.9,5,11.9
				c-3.1,3-5,7.2-5,11.9c0,9.2,7.5,16.7,16.7,16.7h81c9.2,0,16.7-7.5,16.7-16.7c0-4.7-1.9-8.9-5-11.9c3.1-3,5-7.2,5-11.9
				s-1.9-8.9-5-11.9c3.1-3,5-7.2,5-11.9c0-6.6-3.8-12.2-9.4-14.9c0.7-9.9,5.1-19.4,12.2-26.3c16.6-16.3,25.7-38,25.7-61.1
				C233.3,104.2,222.9,80.9,204.8,64.7z M188.1,285.7h-81c-3.9,0-7.1-3.2-7.1-7.1c0-3.9,3.2-7.1,7.1-7.1h81c3.9,0,7.1,3.2,7.1,7.1
				S192,285.7,188.1,285.7z M188.1,261.9h-81c-3.9,0-7.1-3.2-7.1-7.1c0-3.9,3.2-7.1,7.1-7.1h81c3.9,0,7.1,3.2,7.1,7.1
				C195.2,258.7,192,261.9,188.1,261.9z M188.1,238.1h-81c-3.9,0-7.1-3.2-7.1-7.1s3.2-7.1,7.1-7.1h81c3.9,0,7.1,3.2,7.1,7.1
				S192,238.1,188.1,238.1z M200.9,182.9c-8.5,8.4-13.9,19.6-15,31.4h-76.6c-1.1-11.8-6.5-22.9-15.4-31.7
				c-17-16.9-25-40.2-21.9-64.2c4.4-34.2,32.5-61.7,66.8-65.5c22-2.4,43.2,4.3,59.5,18.9c16.1,14.4,25.4,35.1,25.4,56.8
				C223.8,149.2,215.7,168.5,200.9,182.9z"/>
			<path d="M266.6,129.2c-1.8-52.3-37.4-96.1-85.7-110.2h71.5v9.5H281V0h-28.6v9.5H42.9V0H14.3v28.6h28.6V19h71.5
				C66.1,33.1,30.5,76.9,28.7,129.2c-8.2,2.1-14.4,9.5-14.4,18.4c0,10.5,8.5,19,19,19s19-8.5,19-19c0-8.8-6-16.2-14.2-18.3
				C40.3,70.8,88.6,23.8,147.6,23.8s107.3,47,109.4,105.5c-8.1,2.2-14.2,9.5-14.2,18.3c0,10.5,8.5,19,19,19s19-8.5,19-19
				C281,138.7,274.8,131.3,266.6,129.2z M261.9,9.5h9.5V19h-9.5V9.5z M33.3,19h-9.5V9.5h9.5V19z M42.9,147.6c0,5.3-4.3,9.5-9.5,9.5
				s-9.5-4.3-9.5-9.5s4.3-9.5,9.5-9.5S42.9,142.4,42.9,147.6z M261.9,157.1c-5.3,0-9.5-4.3-9.5-9.5s4.3-9.5,9.5-9.5s9.5,4.3,9.5,9.5
				S267.2,157.1,261.9,157.1z"/>
			<path d="M176.2,114.3c7.9,0,14.3-6.4,14.3-14.3s-6.4-14.3-14.3-14.3s-14.3,6.4-14.3,14.3v4.8h-28.6V100c0-7.9-6.4-14.3-14.3-14.3
				s-14.3,6.4-14.3,14.3s6.4,14.3,14.3,14.3h4.8v28.6H119c-7.9,0-14.3,6.4-14.3,14.3c0,7.9,6.4,14.3,14.3,14.3s14.3-6.4,14.3-14.3
				v-4.8h28.6v4.8c0,7.9,6.4,14.3,14.3,14.3s14.3-6.4,14.3-14.3c0-7.9-6.4-14.3-14.3-14.3h-4.8v-28.6
				C171.4,114.3,176.2,114.3,176.2,114.3z M171.4,100c0-2.6,2.1-4.8,4.8-4.8s4.8,2.1,4.8,4.8s-2.1,4.8-4.8,4.8h-4.8V100z
				 M123.8,157.1c0,2.6-2.1,4.8-4.8,4.8s-4.8-2.1-4.8-4.8s2.1-4.8,4.8-4.8h4.8V157.1z M123.8,104.8H119c-2.6,0-4.8-2.1-4.8-4.8
				s2.1-4.8,4.8-4.8s4.8,2.1,4.8,4.8V104.8z M161.9,142.9h-28.6v-28.6h28.6V142.9z M176.2,152.4c2.6,0,4.8,2.1,4.8,4.8
				s-2.1,4.8-4.8,4.8s-4.8-2.1-4.8-4.8v-4.8H176.2z"/>
		</g>
	</g>
</g>
</svg>
