<?xml version="1.0" encoding="utf-8"?>
<!-- Generator: Adobe Illustrator 21.0.2, SVG Export Plug-In . SVG Version: 6.00 Build 0)  -->
<svg version="1.1" id="Layer_1" xmlns="http://www.w3.org/2000/svg" xmlns:xlink="http://www.w3.org/1999/xlink" x="0px" y="0px"
	 viewBox="0 0 512 512" enable-background="new 0 0 512 512" xml:space="preserve">
<g>
	<g>
		<path d="M500.5,131.4H340.1l-11.8-74.7c-0.6-3.9-4-6.8-7.9-6.8H191.7c-4,0-7.3,2.9-7.9,6.8l-11.8,74.7h-40.8V96.5c0-4.4-3.6-8-8-8
			H63c-4.4,0-8,3.6-8,8v34.8H11.5c-4.4,0-8,3.6-8,8v90.1V504c0,4.4,3.6,8,8,8h488.9c4.4,0,8-3.6,8-8V229.5v-90.1
			C508.5,135,504.9,131.4,500.5,131.4z M198.5,66h114.9l10.3,65.4H188.2L198.5,66z M71,104.6h44v26.8H71V104.6z M492.4,495.9H19.6
			V237.5h136c-20.5,23.9-32,54.4-32,86.3c0,21.4,5.2,42.4,15,61.2c-11.7,6.6-19.3,19.1-19.3,33.1c0,21,17.1,38.1,38.1,38.1
			c13.2,0,25.4-7,32.2-17.9c20.1,11.7,42.9,17.9,66.4,17.9c73,0,132.4-59.4,132.4-132.4c0-31.9-11.5-62.4-32-86.3h136L492.4,495.9
			L492.4,495.9z M157,384.9C157,384.9,156.9,384.9,157,384.9C156.9,384.8,156.9,384.8,157,384.9c-11.3-18.4-17.3-39.5-17.3-61.1
			c0-33.9,14.8-66.1,40.5-88.3c0,0,0,0,0,0c21.1-18.1,48-28.1,75.8-28.1c27.8,0,54.7,10,75.8,28.1c0,0,0,0,0,0
			c25.8,22.2,40.5,54.3,40.5,88.3c0,64.1-52.2,116.3-116.3,116.3c-23.4,0-46-6.9-65.3-20.1c0,0,0,0,0,0c0,0,0,0-0.1,0
			C177.1,410.9,165.5,398.7,157,384.9z M176.2,429.5c-3.9,6.5-11,10.7-18.8,10.7c-12.1,0-22-9.9-22-22c0-8.2,4.5-15.6,11.5-19.3
			C154.9,410.5,164.9,420.9,176.2,429.5z M492.4,221.4H340c-23.6-19.4-53.3-30-84-30s-60.3,10.6-84,30H19.6v-74H63h60h55.8h154.4
			c0,0,0,0,0,0c0,0,0,0,0,0h159.2L492.4,221.4L492.4,221.4z"/>
	</g>
</g>
<g>
	<g>
		<path d="M256,234.3c-49.4,0-89.5,40.2-89.5,89.5s40.2,89.5,89.5,89.5s89.5-40.2,89.5-89.5S305.4,234.3,256,234.3z M256,397.3
			c-40.5,0-73.4-32.9-73.4-73.4s32.9-73.4,73.4-73.4s73.4,32.9,73.4,73.4S296.5,397.3,256,397.3z"/>
	</g>
</g>
<g>
	<g>
		<path d="M297,352.4c-3.2-3.1-8.3-3-11.4,0.2c-7.9,8.1-18.4,12.6-29.6,12.6c-4.4,0-8,3.6-8,8s3.6,8,8,8c15.6,0,30.3-6.2,41.2-17.5
			C300.3,360.5,300.2,355.5,297,352.4z"/>
	</g>
</g>
<g>
	<g>
		<path d="M256,266.5c-4.4,0-8,3.6-8,8c0,4.4,3.6,8,8,8c22.8,0,41.3,18.5,41.3,41.3c0,3.7-0.5,7.3-1.4,10.8
			c-1.2,4.3,1.4,8.7,5.7,9.9c0.7,0.2,1.4,0.3,2.1,0.3c3.5,0,6.8-2.4,7.8-5.9c1.3-4.9,2-9.9,2-15C313.4,292.2,287.6,266.5,256,266.5z
			"/>
	</g>
</g>
<g>
	<g>
		<path d="M453.3,260c-4.4,0-8,3.6-8,8v193c0,4.4,3.6,8,8,8s8-3.6,8-8v-193C461.3,263.6,457.7,260,453.3,260z"/>
	</g>
</g>
<g>
	<g>
		<path d="M453.3,157.1c-4.4,0-8,3.6-8,8v34.3c0,4.4,3.6,8,8,8s8-3.6,8-8v-34.3C461.3,160.7,457.7,157.1,453.3,157.1z"/>
	</g>
</g>
<g>
	<g>
		<path d="M397.3,48.5H364c-4.4,0-8,3.6-8,8s3.6,8,8,8h33.4c4.4,0,8-3.6,8-8S401.8,48.5,397.3,48.5z"/>
	</g>
</g>
<g>
	<g>
		<path d="M381.6,99.4l-21.2-21.2c-3.1-3.1-8.2-3.1-11.4,0c-3.1,3.1-3.1,8.2,0,11.4l21.2,21.2c1.6,1.6,3.6,2.4,5.7,2.4
			s4.1-0.8,5.7-2.4C384.7,107.6,384.7,102.5,381.6,99.4z"/>
	</g>
</g>
<g>
	<g>
		<path d="M381.8,2.4c-3.1-3.1-8.2-3.1-11.4,0l-21.2,21.2c-3.1,3.1-3.1,8.2,0,11.4c1.6,1.6,3.6,2.4,5.7,2.4c2.1,0,4.1-0.8,5.7-2.4
			l21.2-21.2C384.9,10.6,384.9,5.5,381.8,2.4z"/>
	</g>
</g>
</svg>
