<?xml version="1.0" encoding="utf-8"?>
<!-- Generator: Adobe Illustrator 21.0.2, SVG Export Plug-In . SVG Version: 6.00 Build 0)  -->
<svg version="1.1" id="Layer_1" xmlns="http://www.w3.org/2000/svg" xmlns:xlink="http://www.w3.org/1999/xlink" x="0px" y="0px"
	 viewBox="0 0 512 512" enable-background="new 0 0 512 512" xml:space="preserve">
<g>
	<g>
		<path d="M508,112.3c-1.2-3-4.1-4.9-7.3-4.9h-99.5V7.9c0-3.2-1.9-6.1-4.9-7.3c-3-1.2-6.4-0.5-8.6,1.7L331,59c0,0,0,0,0,0
			c0,0,0,0,0,0l-53.7,53.7c-1.5,1.5-2.3,3.5-2.3,5.6v9.3c-23.1-9.1-47.4-13.7-72.6-13.7c-109.8,0-199,89.3-199,199s89.3,199,199,199
			s199-89.3,199-199c0-27.7-5.5-54.3-16.5-79.4h5.3c2.1,0,4.1-0.8,5.6-2.3l53.7-53.7c0,0,0,0,0,0l56.7-56.7
			C508.6,118.6,509.2,115.2,508,112.3z M344.5,67.9L385.4,27v85l-40.9,40.9V67.9z M290.8,139.6v-18l0,0l37.9-37.9v85l-27.9,27.9
			l-9.4,9.4c-0.2-0.2-0.4-0.4-0.7-0.5L290.8,139.6L290.8,139.6z M275,213.2v9.3h0l-20,20c-15.2-11.3-33.6-17.5-52.6-17.5
			c-48.6,0-88.1,39.5-88.1,88.1s39.5,88.1,88.1,88.1s88.1-39.5,88.1-88.1c0-22.3-8.5-43.7-23.7-60l19.4-19.4h10.7
			c18.7,22.2,29,50.3,29,79.4c0,68.1-55.4,123.5-123.5,123.5C134.3,436.4,78.9,381,78.9,313s55.4-123.5,123.5-123.5
			C228.8,189.5,253.8,197.7,275,213.2z M199.8,308.8c1.5,1.5,3.6,2.3,5.6,2.3s4-0.8,5.6-2.3l17.8-17.8c5.1,6.1,8,13.8,8,21.9
			c0,18.9-15.4,34.3-34.3,34.3c-18.9,0-34.3-15.4-34.3-34.3s15.4-34.3,34.3-34.3c4.7,0,9.3,1,13.5,2.8l-16.2,16.2
			C196.7,300.7,196.7,305.8,199.8,308.8z M227.7,269.7c-7.6-4.5-16.4-6.9-25.3-6.9c-27.6,0-50.1,22.5-50.1,50.1
			c0,27.6,22.5,50.1,50.1,50.1c27.6,0,50.1-22.5,50.1-50.1c0-12.4-4.5-24-12.6-33.1l15.7-15.7c12.2,13.3,19,30.7,19,48.8
			c0,39.8-32.4,72.3-72.3,72.3s-72.3-32.4-72.3-72.3s32.4-72.3,72.3-72.3c14.8,0,29.2,4.6,41.3,13L227.7,269.7z M385.6,313
			c0,101-82.2,183.2-183.2,183.2S19.2,414,19.2,313s82.2-183.2,183.2-183.2c25.3,0,49.7,5,72.6,15v49.4
			c-21.8-13.4-46.6-20.5-72.6-20.5c-76.8,0-139.3,62.5-139.3,139.3s62.5,139.3,139.3,139.3c76.8,0,139.3-62.5,139.3-139.3
			c0-28.5-8.7-56.1-24.9-79.4h50.8C379.6,258.4,385.6,285.1,385.6,313z M387,217.8h-14.5H304c-0.3-0.3-0.7-0.7-1-1l9-9l27.9-27.9h85
			L387,217.8z M440.7,164.1h-85l40.9-40.9h85L440.7,164.1z"/>
	</g>
</g>
</svg>
