<?xml version="1.0" encoding="utf-8"?>
<!-- Generator: Adobe Illustrator 21.0.2, SVG Export Plug-In . SVG Version: 6.00 Build 0)  -->
<svg version="1.1" id="Layer_1" xmlns="http://www.w3.org/2000/svg" xmlns:xlink="http://www.w3.org/1999/xlink" x="0px" y="0px"
	 viewBox="0 0 295.2 295.2" enable-background="new 0 0 295.2 295.2" xml:space="preserve">
<g>
	<g>
		<g>
			<path d="M244.4,239.4l-6.9-6.6c-0.3,0.4-0.7,0.7-1.1,1.1l-39.6-129.6c5-6.4,8-14.5,8-23.3c0-21-17.1-38.1-38.1-38.1V25.4
				c1.3,0.2,2.5,0.3,3.8,0.6l1.7-9.4c-2-0.4-3.9-0.6-5.9-0.9C164.7,6.8,157,0,147.6,0s-17.1,6.8-18.7,15.7c-2,0.3-3.9,0.5-5.9,0.9
				l1.7,9.4c1.3-0.2,2.5-0.4,3.8-0.6v17.5c-21,0-38.1,17.1-38.1,38.1c0,8.8,3,16.8,8,23.3L58.9,233.9c-0.4-0.4-0.7-0.7-1.1-1.1
				l-6.9,6.6c1.6,1.6,3.2,3.2,4.9,4.8L47.8,270l-0.2,25.2l27.9-20.9l3.8-12.3c1,0.6,2,1.3,3,1.9l4.7-8.3c-1.6-0.9-3.2-2-4.8-3
				l17.5-57.4h95.9l17.5,57.4c-1.6,1-3.2,2-4.8,3l4.7,8.3c1-0.6,2-1.2,3-1.9l3.8,12.3l27.9,20.9v-24.5l-8.1-26.6
				C241.1,242.6,242.8,241,244.4,239.4z M166.7,52.4c15.8,0,28.6,12.8,28.6,28.6c0,9.2-4.4,17.3-11.1,22.6
				c-2.8-9.4-9.1-17.3-17.5-22.2c0-0.1,0-0.3,0-0.4c0-10.3-4.1-19.6-10.7-26.5C159.2,53.1,162.9,52.4,166.7,52.4z M165.1,91.7
				c5.2,4,8.9,9.8,10.4,16.4c-2.8,0.9-5.7,1.4-8.8,1.4c-3.8,0-7.4-0.8-10.7-2.1C160.1,103,163.3,97.7,165.1,91.7z M147.6,102.2
				c-4.4-3.9-7.5-9.1-8.8-15.1c2.8-0.9,5.7-1.4,8.8-1.4s6,0.5,8.8,1.4C155.1,93.1,152,98.3,147.6,102.2z M147.6,76.2
				c-3.2,0-6.3,0.4-9.3,1.2c0.9-7,4.3-13.2,9.3-17.7c5,4.5,8.4,10.7,9.3,17.7C153.9,76.6,150.8,76.2,147.6,76.2z M139.3,107.4
				c-3.3,1.4-6.9,2.1-10.7,2.1c-3.1,0-6-0.5-8.8-1.4c1.5-6.6,5.2-12.4,10.4-16.4C131.9,97.7,135.1,103,139.3,107.4z M128.6,119
				c6.9,0,13.4-1.9,19-5.2c5.6,3.3,12.1,5.2,19,5.2c3.2,0,6.3-0.4,9.3-1.2c-1.8,14.1-13.8,25-28.3,25s-26.6-10.9-28.3-25
				C122.3,118.6,125.4,119,128.6,119z M138.1,19c0-5.3,4.3-9.5,9.5-9.5s9.5,4.3,9.5,9.5v25.1c-3.4,0.9-6.6,2.2-9.5,3.9
				c-2.9-1.7-6.1-3-9.5-3.9V19z M128.6,52.4c3.8,0,7.4,0.8,10.7,2.1c-6.6,6.9-10.7,16.2-10.7,26.5c0,0.1,0,0.3,0,0.4
				c-8.4,4.8-14.7,12.7-17.5,22.2C104.4,98.3,100,90.1,100,81C100,65.2,112.8,52.4,128.6,52.4z M67.3,268.5l-10.2,7.6v-4.1l49-160.4
				c1.1,0.8,2.2,1.5,3.4,2.2c0,0.1,0,0.3,0,0.4c0,3.8,0.6,7.4,1.6,10.9L67.3,268.5z M102.6,185.7l14.8-48.4c7,9.1,17.9,15,30.2,15
				c12.3,0,23.3-5.9,30.2-15l14.8,48.4H102.6z M238.1,276.2L238.1,276.2l-10.2-7.6l-43.8-143.4c1-3.5,1.6-7.1,1.6-10.9
				c0-0.1,0-0.3,0-0.4c1.2-0.7,2.3-1.4,3.4-2.2l49,160.4L238.1,276.2L238.1,276.2z"/>
			<path d="M208.3,28.9c-5.6-2.9-11.5-5.4-17.5-7.4l-3.1,9c5.6,1.9,11,4.2,16.3,6.9L208.3,28.9z"/>
			<path d="M262.9,80.6c-3.2-5.5-6.8-10.7-10.7-15.7l-7.5,5.9c3.7,4.6,7,9.5,10,14.6L262.9,80.6z"/>
			<path d="M239.3,50.8c-4.6-4.4-9.6-8.4-14.7-12.1l-5.5,7.8c4.8,3.4,9.4,7.2,13.7,11.2L239.3,50.8z"/>
			<path d="M267.9,118.1l9.2-2.3c-1.5-6.2-3.5-12.3-5.9-18.1l-8.8,3.6C264.7,106.7,266.5,112.3,267.9,118.1z"/>
			<path d="M280.3,134.6l-9.5,0.9c0.4,4,0.6,8.1,0.6,12.1c0,1.9,0,3.7-0.1,5.5l9.5,0.4c0.1-2,0.1-4,0.1-6
				C281,143.3,280.7,138.9,280.3,134.6z"/>
			<path d="M264.8,187.8l9,3.1c2.1-6,3.7-12.2,4.9-18.4l-9.4-1.8C268.2,176.5,266.7,182.2,264.8,187.8z"/>
			<path d="M248.7,219.2l7.8,5.5c3.7-5.2,7-10.6,9.9-16.3l-8.5-4.4C255.2,209.3,252.1,214.4,248.7,219.2z"/>
			<path d="M174.5,268.5l2.1,9.3c6.3-1.4,12.6-3.3,18.7-5.6l-3.4-8.9C186.2,265.4,180.4,267.2,174.5,268.5z"/>
			<path d="M147.6,271.4c-3-0.1-6-0.1-9.1-0.3l-0.7,9.5c3.2,0.2,6.4,0.4,9.6,0.4c3.4,0.1,6.6-0.1,9.9-0.3l-0.7-9.5
				C153.7,271.3,150.6,271.4,147.6,271.4z"/>
			<path d="M99.9,272.2c6.1,2.3,12.3,4.2,18.7,5.6l2.1-9.3c-5.9-1.3-11.7-3.1-17.3-5.2L99.9,272.2z"/>
			<path d="M107.7,30.4l-3.1-9c-6,2-11.9,4.5-17.5,7.4l4.3,8.5C96.6,34.6,102.1,32.3,107.7,30.4z"/>
			<path d="M50.6,70.7l-7.5-5.9c-3.9,5-7.6,10.3-10.7,15.7l8.2,4.8C43.6,80.2,47,75.3,50.6,70.7z"/>
			<path d="M28.9,208.3c2.9,5.6,6.2,11.1,9.9,16.3l7.8-5.5c-3.4-4.8-6.5-9.9-9.2-15.1L28.9,208.3z"/>
			<path d="M25.9,170.6l-9.4,1.8c1.2,6.2,2.8,12.4,4.8,18.4l9-3.1C28.5,182.1,27,176.4,25.9,170.6z"/>
			<path d="M23.8,147.6c0-4.1,0.2-8.2,0.6-12.3l-9.5-0.9c-0.4,4.4-0.6,8.8-0.6,13.2c0,1.9,0,3.9,0.1,5.8l9.5-0.4
				C23.8,151.2,23.8,149.4,23.8,147.6z"/>
			<path d="M76.3,46.4l-5.5-7.8c-5.2,3.6-10.1,7.7-14.7,12l6.5,6.9C66.9,53.6,71.5,49.8,76.3,46.4z"/>
			<path d="M32.8,101.1L24,97.5c-2.4,5.9-4.4,12-5.9,18.1l9.2,2.3C28.8,112.2,30.6,106.5,32.8,101.1z"/>
		</g>
	</g>
</g>
</svg>
