<?xml version="1.0" encoding="utf-8"?>
<!-- Generator: Adobe Illustrator 21.0.2, SVG Export Plug-In . SVG Version: 6.00 Build 0)  -->
<svg version="1.1" id="Layer_1" xmlns="http://www.w3.org/2000/svg" xmlns:xlink="http://www.w3.org/1999/xlink" x="0px" y="0px"
	 viewBox="0 0 295.2 295.2" enable-background="new 0 0 295.2 295.2" xml:space="preserve">
<g>
	<g>
		<g>
			<path d="M105.2,124c-31.6,0-57.4,25.7-57.4,57.4c0,4.8,0.6,9.6,1.9,14.5l2.1,8l75.9-75.9l-8-2.1C114.8,124.7,109.9,124,105.2,124
				z M57.5,184.8c-0.1-1.2-0.1-2.3-0.1-3.4c0-26.4,21.5-47.8,47.8-47.8c1.1,0,2.3,0,3.4,0.1L57.5,184.8z"/>
			<path d="M273.6,66.7c-5.8,0-11.2,2.2-15.3,6.3l-10.8,10.7V14.3c0-7.9-6.4-14.3-14.3-14.3H61.9C54,0,47.6,6.4,47.6,14.3v79.1
				C19,112.2,0,144.6,0,181.4c0,28.1,10.9,54.5,30.8,74.4l3.4,3.4l13.4-13.4V281c0,7.9,6.4,14.3,14.3,14.3h171.4
				c7.9,0,14.3-6.4,14.3-14.3V144.8l41.3-41.3c4.1-4.1,6.3-9.5,6.3-15.3C295.2,76.4,285.6,66.7,273.6,66.7z M145.2,209.9l-5.2-5.2
				l98-98l5.2,5.2L145.2,209.9z M147.2,225.4l-12.9,2.1l2.1-12.9L147.2,225.4z M57.1,14.3c0-2.6,2.1-4.8,4.8-4.8h171.4
				c2.6,0,4.8,2.1,4.8,4.8v23.8h-181V14.3z M57.1,47.6h181v45.6L128.9,202.5l-6.1,36.7l36.7-6.1l78.7-78.7v93.3h-181v-11.5
				l125.8-125.8l-3.4-3.4c-19.9-19.9-46.3-30.8-74.4-30.8c-17.3,0-33.6,4.2-48,11.7C57.1,87.8,57.1,47.6,57.1,47.6z M34.3,245.6
				c-1.2-1.4-2.3-2.8-3.5-4.2l7.6-5.5l-5.6-7.7l-7.6,5.5c-3.8-5.7-6.9-11.8-9.4-18.2l9-2.9l-2.9-9.1l-9,2.7
				c-1.8-6.6-2.8-10.9-3.1-20.4H19v-9.5H9.8c0.3-4.8,1.4-13.5,3.2-20l8.9,3l2.9-9l-8.9-2.9c2.5-6.4,5.5-12.5,9.3-18.2l7.6,5.5
				l5.6-7.7l-7.6-5.5c4.3-5.3,9.1-10.2,14.5-14.5l5.5,7.6l7.7-5.6l-5.5-7.6c5.7-3.7,11.8-6.8,18.2-9.3l2.9,8.9l9.1-2.9L80,89.1
				c6.5-1.8,15.2-2.8,20-3.2v9.3h9.5v-9.3c9.5,0.3,13.9,1.4,20.4,3.1l-2.8,9l9.1,2.9l3-9c6.4,2.4,12.5,5.6,18.2,9.4l-5.5,7.6
				l7.7,5.6l5.5-7.6c1.4,1.1,2.9,2.3,4.2,3.5L34.3,245.6z M142.9,271.4c0-2.6,2.1-4.8,4.8-4.8s4.8,2.1,4.8,4.8s-2.1,4.8-4.8,4.8
				C145,276.2,142.9,274.1,142.9,271.4z M238.1,281c0,2.6-2.1,4.8-4.8,4.8h-85.7c7.9,0,14.3-6.4,14.3-14.3c0-7.9-6.4-14.3-14.3-14.3
				s-14.3,6.4-14.3,14.3c0,7.9,6.4,14.3,14.3,14.3H61.9c-2.6,0-4.8-2.1-4.8-4.8v-23.8h90.5h90.5L238.1,281L238.1,281z M157.1,221.8
				l-5.2-5.2l98-98l5.2,5.2L157.1,221.8z M261.9,117.1L244.8,100l7.6-7.6l17.1,17.1L261.9,117.1z M282.2,96.8l-6,6l-17.1-17.1l6-6
				c2.3-2.3,5.3-3.5,8.5-3.5c6.7,0,12.1,5.4,12.1,12.1C285.7,91.5,284.5,94.5,282.2,96.8z"/>
			<rect x="119" y="19" width="57.1" height="9.5"/>
		</g>
	</g>
</g>
</svg>
