<?xml version="1.0" encoding="utf-8"?>
<!-- Generator: Adobe Illustrator 21.0.2, SVG Export Plug-In . SVG Version: 6.00 Build 0)  -->
<svg version="1.1" id="Layer_1" xmlns="http://www.w3.org/2000/svg" xmlns:xlink="http://www.w3.org/1999/xlink" x="0px" y="0px"
	 viewBox="0 0 295.2 295.2" enable-background="new 0 0 295.2 295.2" xml:space="preserve">
<g>
	<g>
		<g>
			<path d="M271.4,85.7h-57.1V57.1c0-7.9-6.4-14.3-14.3-14.3s-14.3,6.4-14.3,14.3v28.6H42.9C29.7,85.7,19,96.4,19,109.5v76.2h-4.8
				c-2.6,0-4.8-2.1-4.8-4.8V57.1c0-2.6,2.1-4.8,4.8-4.8h133.3c7.9,0,14.3-6.4,14.3-14.3V0h-9.5v38.1c0,2.6-2.1,4.8-4.8,4.8H14.3
				C6.4,42.9,0,49.3,0,57.1V181c0,7.9,6.4,14.3,14.3,14.3H19v76.2c0,13.1,10.7,23.8,23.8,23.8h228.6c13.1,0,23.8-10.7,23.8-23.8
				V109.5C295.2,96.4,284.6,85.7,271.4,85.7z M195.2,57.1c0-2.6,2.1-4.8,4.8-4.8s4.8,2.1,4.8,4.8v81h-9.5L195.2,57.1L195.2,57.1z
				 M195.2,147.6h9.5v57.1h-9.5V147.6z M204.8,214.3v3.3l-4.8,7.1l-4.8-7.1v-3.3H204.8z M195.2,234.8v12.8h9.5v-12.8l9.5-14.3V119
				h47.6v142.9H85.7V119h100v101.4L195.2,234.8z M42.9,95.2h142.9v14.3H28.6C28.6,101.6,35,95.2,42.9,95.2z M28.6,190.5L28.6,190.5
				V119h47.6v71.4c0-13.1-10.7-23.8-23.8-23.8C39.3,166.7,28.6,177.3,28.6,190.5c0,13.1,10.7,23.8,23.8,23.8
				c13.1,0,23.8-10.7,23.8-23.8v71.4H28.6V190.5z M66.7,190.5c0,7.9-6.4,14.3-14.3,14.3s-14.3-6.4-14.3-14.3
				c0-7.9,6.4-14.3,14.3-14.3S66.7,182.6,66.7,190.5z M285.7,271.4c0,7.9-6.4,14.3-14.3,14.3H42.9c-7.9,0-14.3-6.4-14.3-14.3h242.9
				V109.5h-57.1V95.2h57.1c7.9,0,14.3,6.4,14.3,14.3V271.4z"/>
			<circle cx="52.4" cy="190.5" r="4.8"/>
			<rect x="38.1" y="147.6" width="28.6" height="9.5"/>
			<rect x="38.1" y="128.6" width="28.6" height="9.5"/>
			<rect x="38.1" y="242.9" width="28.6" height="9.5"/>
			<rect x="38.1" y="223.8" width="28.6" height="9.5"/>
		</g>
	</g>
</g>
</svg>
