<?xml version="1.0" encoding="utf-8"?>
<!-- Generator: Adobe Illustrator 21.0.2, SVG Export Plug-In . SVG Version: 6.00 Build 0)  -->
<svg version="1.1" id="Layer_1" xmlns="http://www.w3.org/2000/svg" xmlns:xlink="http://www.w3.org/1999/xlink" x="0px" y="0px"
	 viewBox="0 0 127.4 37.9" enable-background="new 0 0 127.4 37.9" xml:space="preserve">
<g>
	<path fill="#0088E8" d="M10.9,29.8c0,0.1,0,0.2,0,0.3c0,1.1-0.3,2-1.1,2.7C9,33.7,8.1,34,7,34c-1.1,0-2-0.4-2.8-1.2
		c-0.8-0.8-1.2-1.8-1.2-2.9v-0.6L0,30.1v0.4c0,1.6,0.7,3.2,2,4.5C3.4,36.3,5.1,37,7,37c1.9,0,3.6-0.7,4.9-2.1
		c1.3-1.3,1.9-2.9,1.9-4.9V0h-3L10.9,29.8z"/>
	<path fill="#0088E8" d="M43.3,30.6c-0.2,0.3-0.4,0.5-0.7,0.7c-1.9,1.9-4.2,2.8-6.8,2.8c-2.3,0-4.3-0.7-6-2.1l15.8-15.8L45.2,16
		c-0.1-0.1-0.3-0.3-0.4-0.4c-0.4-0.4-0.7-0.7-1.1-1c-2.3-1.8-4.9-2.7-7.9-2.7c-3.5,0-6.5,1.3-9,3.7c-2.5,2.5-3.7,5.5-3.7,9
		c0,3.5,1.3,6.5,3.7,9c2.5,2.5,5.5,3.7,9,3.7c3.5,0,6.5-1.3,9-3.7c0.5-0.5,1-1,1.4-1.6l0.4-0.5l-3-1.1L43.3,30.6z M35.8,14.9
		c2,0,3.8,0.5,5.3,1.6L27.8,29.9c-1.1-1.5-1.6-3.3-1.6-5.3c0-2.7,1-4.9,2.8-6.8C30.9,15.9,33.2,14.9,35.8,14.9z"/>
	<rect x="55.4" fill="#0088E8" width="3" height="36.7"/>
	<polygon fill="#0088E8" points="97.8,10.9 100.5,4.9 103.6,4.9 100.7,10.9 	"/>
	<rect x="97.8" y="13.8" fill="#0088E8" width="3" height="22.9"/>
	<polygon fill="#0088E8" points="120.1,24.2 126.1,13.8 122.7,13.8 118.5,21.1 114.3,13.8 110.8,13.8 116.8,24.2 109.6,36.7 
		113,36.7 118.5,27.3 123.9,36.7 127.4,36.7 	"/>
	<polygon fill="#0088E8" points="86.5,19.7 83.2,19.7 77.8,31.4 69.7,13.8 66.3,13.8 77.8,37.9 	"/>
</g>
</svg>
