<?xml version="1.0" encoding="utf-8"?>
<!-- Generator: Adobe Illustrator 21.0.2, SVG Export Plug-In . SVG Version: 6.00 Build 0)  -->
<svg version="1.1" id="Layer_1" xmlns="http://www.w3.org/2000/svg" xmlns:xlink="http://www.w3.org/1999/xlink" x="0px" y="0px"
	 viewBox="0 0 296.6 296.6" enable-background="new 0 0 296.6 296.6" xml:space="preserve">
<g>
	<g>
		<path d="M282.3,76.9h-43.7c0.5-1.5,0.9-3.1,0.9-4.8c0-7.9-6.4-14.3-14.3-14.3h-4.8V15c0-7.9-6.4-14.3-14.3-14.3H91.8
			c-7.9,0-14.3,6.4-14.3,14.3V53c0,2.6-2.1,4.8-4.8,4.8H29.9v-9.5c0-7.9-6.4-14.3-14.3-14.3H1.3v57.1h14.3c7.9,0,14.3-6.4,14.3-14.3
			v-9.5h42.9c7.9,0,14.3-6.4,14.3-14.3V15c0-2.6,2.1-4.8,4.8-4.8h114.3c2.6,0,4.8,2.1,4.8,4.8v42.9h-4.8c-7.9,0-14.3,6.4-14.3,14.3
			c0,1.7,0.3,3.3,0.9,4.8H149c-7.9,0-14.3,6.4-14.3,14.3H42.5L12.8,115l29.8,23.8h92.1v9.5H63.5l-40.4-5.1L0,172.1L23.1,201
			l40.4-5.1h71.1v14.3H1.3v71.4h168.5c13,9,28.8,14.3,45.8,14.3c44.6,0,81-36.3,81-81V91.1C296.6,83.3,290.2,76.9,282.3,76.9z
			 M20.4,76.9c0,2.6-2.1,4.8-4.8,4.8h-4.8V43.5h4.8c2.6,0,4.8,2.1,4.8,4.8V76.9z M39.4,124.1L28,115l11.4-9.1V124.1z M134.7,129.2
			H49v-9.5h85.7L134.7,129.2L134.7,129.2z M134.7,110.2H49v-9.5h85.7L134.7,110.2L134.7,110.2z M58.5,187l-31.3,3.9l-11.2-14h5.3
			c2,5.5,7.2,9.5,13.4,9.5c7.9,0,14.3-6.4,14.3-14.3c0-7.9-6.4-14.3-14.3-14.3c-6.2,0-11.4,4-13.4,9.5H16l11.2-14l31.3,3.9
			C58.5,157.3,58.5,187,58.5,187z M29.9,172.1c0-2.6,2.1-4.8,4.8-4.8s4.8,2.1,4.8,4.8s-2.1,4.8-4.8,4.8S29.9,174.7,29.9,172.1z
			 M134.7,186.4H87.1v-28.6h-9.5v28.6H68v-28.6l66.7,0L134.7,186.4L134.7,186.4z M206.1,67.3h19c2.6,0,4.8,2.1,4.8,4.8
			s-2.1,4.8-4.8,4.8h-19c-2.6,0-4.8-2.1-4.8-4.8C201.3,69.5,203.5,67.3,206.1,67.3z M10.9,272.1v-52.4h9.5V234h9.5v-14.3h9.5v19H49
			v-19h9.5V234H68v-14.3h9.5v19h9.5v-19h9.5V234h9.5v-14.3h9.5v19h9.5v-19h9.8c1.2,20.4,9.9,38.8,23.4,52.4H10.9z M287.1,215
			c0,39.4-32,71.4-71.4,71.4s-71.4-32-71.4-71.4v-19v-47.6v-4.8h142.9V215z M287.1,134h-66.7V95.9h-9.5V134h-66.7V91.1
			c0-2.6,2.1-4.8,4.8-4.8h57.1h19h57.1c2.6,0,4.8,2.1,4.8,4.8V134z"/>
	</g>
</g>
</svg>
