<?xml version="1.0" encoding="utf-8"?>
<!-- Generator: Adobe Illustrator 21.0.2, SVG Export Plug-In . SVG Version: 6.00 Build 0)  -->
<svg version="1.1" id="Layer_1" xmlns="http://www.w3.org/2000/svg" xmlns:xlink="http://www.w3.org/1999/xlink" x="0px" y="0px"
	 viewBox="0 0 512 512" enable-background="new 0 0 512 512" xml:space="preserve">
<g>
	<g>
		<path d="M251.7,169.6c-30.9,0-56,25.1-56,56s25.1,56,56,56s56-25.1,56-56S282.5,169.6,251.7,169.6z M251.7,265.2
			c-21.9,0-39.7-17.8-39.7-39.7s17.8-39.7,39.7-39.7s39.7,17.8,39.7,39.7C291.3,247.4,273.5,265.2,251.7,265.2z"/>
	</g>
</g>
<g>
	<g>
		<path d="M251.7,395.7c-23.7,0-42.9,19.3-42.9,42.9c0,20.9,30.4,62.1,36.4,70.1c1.5,2,3.9,3.2,6.5,3.2c2.6,0,5-1.2,6.5-3.2
			c6.1-8,36.4-49.3,36.4-70.1C294.6,414.9,275.3,395.7,251.7,395.7z M251.7,490C239,471.9,225,448.3,225,438.6
			c0-14.7,11.9-26.6,26.6-26.6c14.7,0,26.6,11.9,26.6,26.6C278.3,448.3,264.3,471.9,251.7,490z"/>
	</g>
</g>
<g>
	<g>
		<path d="M448.4,371.7l-79.9-71.5V147.3c0-0.1,0-0.2,0-0.2c0-0.2,0-0.3,0-0.5c0-0.1,0-0.2,0-0.4c0-0.1,0-0.3-0.1-0.4
			c0-0.1-0.1-0.2-0.1-0.4c0-0.1-0.1-0.3-0.1-0.4c0-0.1-0.1-0.3-0.1-0.4c0-0.1-0.1-0.3-0.1-0.4c-0.1-0.1-0.1-0.3-0.2-0.4
			c-0.1-0.1-0.1-0.2-0.2-0.3c-0.1-0.1-0.1-0.3-0.2-0.4c-0.1-0.1-0.1-0.2-0.2-0.3c-0.1-0.1-0.2-0.3-0.3-0.4c0-0.1-0.1-0.1-0.1-0.2
			L258.1,3.1c-1.5-2-3.9-3.1-6.4-3.1c-2.5,0-4.9,1.2-6.4,3.1L136.5,142.3c0,0.1-0.1,0.1-0.1,0.2c-0.1,0.1-0.2,0.3-0.3,0.4
			c-0.1,0.1-0.1,0.2-0.2,0.3c-0.1,0.1-0.1,0.3-0.2,0.4c-0.1,0.1-0.1,0.2-0.2,0.3c-0.1,0.1-0.1,0.3-0.2,0.4c-0.1,0.1-0.1,0.2-0.1,0.4
			c0,0.1-0.1,0.2-0.1,0.4c0,0.1-0.1,0.3-0.1,0.4c0,0.1-0.1,0.2-0.1,0.4c0,0.1,0,0.3-0.1,0.4c0,0.1,0,0.2,0,0.4c0,0.2,0,0.3,0,0.5
			c0,0.1,0,0.2,0,0.2v152.9l-79.9,71.5c-2.5,2.3-3.4,5.8-2.2,9c1.2,3.2,4.2,5.2,7.6,5.2h82.6h217.4H443c3.4,0,6.4-2.1,7.6-5.2
			C451.8,377.5,450.9,373.9,448.4,371.7z M134.8,369.6H81.7l53.1-47.5V369.6z M251.7,21.4l92,117.7h-184L251.7,21.4z M352.2,369.6
			H151.1V312h201.1V369.6z M352.2,295.7H151.1V155.4h201.1V295.7z M368.5,369.6v-47.5l53.1,47.5H368.5z"/>
	</g>
</g>
<g>
	<g>
		<path d="M261.8,202.4c-3.2-3.2-8.3-3.2-11.5,0l-21.7,21.7c-3.2,3.2-3.2,8.3,0,11.5c1.6,1.6,3.7,2.4,5.8,2.4s4.2-0.8,5.8-2.4
			l21.7-21.7C264.9,210.8,264.9,205.6,261.8,202.4z"/>
	</g>
</g>
<g>
	<g>
		<path d="M274.8,224.1c-3.2-3.2-8.3-3.2-11.5,0l-13,13c-3.2,3.2-3.2,8.3,0,11.5c1.6,1.6,3.7,2.4,5.8,2.4s4.2-0.8,5.8-2.4l13-13
			C278,232.5,278,227.3,274.8,224.1z"/>
	</g>
</g>
<g>
	<g>
		<path d="M486.5,252.2c-4.5,0-8.2,3.6-8.2,8.2v147.8c0,4.5,3.6,8.2,8.2,8.2c4.5,0,8.2-3.6,8.2-8.2V260.3
			C494.6,255.8,491,252.2,486.5,252.2z"/>
	</g>
</g>
<g>
	<g>
		<path d="M434.3,217.4c-4.5,0-8.2,3.6-8.2,8.2v52.2c0,4.5,3.6,8.2,8.2,8.2c4.5,0,8.2-3.6,8.2-8.2v-52.2
			C442.4,221.1,438.8,217.4,434.3,217.4z"/>
	</g>
</g>
<g>
	<g>
		<path d="M25.5,260.9c-4.5,0-8.2,3.6-8.2,8.2V443c0,4.5,3.6,8.2,8.2,8.2s8.2-3.6,8.2-8.2V269C33.7,264.5,30,260.9,25.5,260.9z"/>
	</g>
</g>
<g>
	<g>
		<path d="M77.7,182.6c-4.5,0-8.2,3.6-8.2,8.2V269c0,4.5,3.7,8.2,8.2,8.2s8.2-3.6,8.2-8.2v-78.3C85.9,186.3,82.2,182.6,77.7,182.6z"
			/>
	</g>
</g>
</svg>
