<?xml version="1.0" encoding="utf-8"?>
<!-- Generator: Adobe Illustrator 21.0.2, SVG Export Plug-In . SVG Version: 6.00 Build 0)  -->
<svg version="1.1" id="Layer_1" xmlns="http://www.w3.org/2000/svg" xmlns:xlink="http://www.w3.org/1999/xlink" x="0px" y="0px"
	 viewBox="0 0 512 512" enable-background="new 0 0 512 512" xml:space="preserve">
<g>
	<g>
		<path d="M504,4.3H256H8c-4.4,0-8,3.6-8,8v102.6v384.8c0,4.4,3.6,8,8,8h248h248c4.4,0,8-3.6,8-8V114.9V12.3
			C512,7.9,508.4,4.3,504,4.3z M496,491.7H256H16V122.9h240h240L496,491.7L496,491.7z M496,106.9H256H16V20.3h240h240L496,106.9
			L496,106.9z"/>
	</g>
</g>
<g>
	<g>
		<path d="M427,38.5H333c-4.4,0-8,3.6-8,8c0,4.4,3.6,8,8,8H427c4.4,0,8-3.6,8-8C435,42.1,431.5,38.5,427,38.5z"/>
	</g>
</g>
<g>
	<g>
		<path d="M469.8,38.5h-17.1c-4.4,0-8,3.6-8,8c0,4.4,3.6,8,8,8h17.1c4.4,0,8-3.6,8-8C477.8,42.1,474.2,38.5,469.8,38.5z"/>
	</g>
</g>
<g>
	<g>
		<path d="M264.6,29.9c-3.8,0-7.6,0.6-11.2,1.9c0,0,0,0,0,0c-13.4,4.8-22.4,17.5-22.4,31.7c0,14.2,9,27,22.4,31.7c0,0,0,0,0,0
			c3.6,1.3,7.4,1.9,11.2,1.9c18.6,0,33.7-15.1,33.7-33.7S283.1,29.9,264.6,29.9z M264.6,81.2c-2,0-4-0.3-5.9-1c0,0,0,0,0,0
			c-7-2.5-11.8-9.2-11.8-16.6s4.7-14.1,11.8-16.6c0,0,0,0,0,0c1.9-0.7,3.9-1,5.9-1c9.7,0,17.6,7.9,17.6,17.6S274.3,81.2,264.6,81.2z
			"/>
	</g>
</g>
<g>
	<g>
		<path d="M170.5,29.9c-18.6,0-33.7,15.1-33.7,33.7s15.1,33.7,33.7,33.7s33.7-15.1,33.7-33.7S189.1,29.9,170.5,29.9z M170.5,81.2
			c-9.7,0-17.6-7.9-17.6-17.6S160.8,46,170.5,46s17.6,7.9,17.6,17.6S180.2,81.2,170.5,81.2z"/>
	</g>
</g>
<g>
	<g>
		<path d="M76.4,29.9c-18.6,0-33.7,15.1-33.7,33.7s15.1,33.7,33.7,33.7s33.7-15.1,33.7-33.7S95,29.9,76.4,29.9z M76.4,81.2
			c-9.7,0-17.6-7.9-17.6-17.6S66.7,46,76.4,46s17.6,7.9,17.6,17.6S86.2,81.2,76.4,81.2z"/>
	</g>
</g>
<g>
	<g>
		<path d="M480.5,214.5l-84.7-84.7c-3.1-3.1-8.2-3.1-11.3,0l-54,54H256H72.2c-4.4,0-8,3.6-8,8s3.6,8,8,8H256h58.5L250.3,264
			l-56.6,56.6H72.2c-4.4,0-8,3.6-8,8s3.6,8,8,8h105.5L160.4,354c0,0,0,0,0,0l0,0c0,0,0,0.1-0.1,0.1c-0.2,0.2-0.3,0.3-0.5,0.5
			c-0.1,0.1-0.1,0.1-0.2,0.2c-0.1,0.1-0.2,0.3-0.3,0.4c-0.1,0.1-0.1,0.2-0.2,0.3c-0.1,0.1-0.2,0.2-0.2,0.4c-0.1,0.1-0.1,0.3-0.2,0.4
			c0,0.1-0.1,0.2-0.1,0.3c-0.1,0.2-0.1,0.3-0.2,0.5c0,0.1-0.1,0.2-0.1,0.2c-0.1,0.2-0.1,0.4-0.2,0.6c0,0,0,0.1,0,0.1l0,0
			c0,0,0,0,0,0l-19.9,99.3H72.2c-4.4,0-8,3.6-8,8c0,4.4,3.6,8,8,8h72.6c0,0,0,0,0,0c0,0,0,0,0,0c0,0,0,0,0,0c0,0,0,0,0,0h6.3
			c2.1,0,4.1-0.8,5.5-2.2l35-7c0,0,0,0,0,0l0,0l60.4-12.1c0,0,0,0,0,0l0,0c0,0,0.1,0,0.1,0c0.2,0,0.4-0.1,0.6-0.2
			c0.1,0,0.2-0.1,0.3-0.1c0.2-0.1,0.3-0.1,0.5-0.2c0.1,0,0.2-0.1,0.3-0.2c0.1-0.1,0.3-0.1,0.4-0.2c0.1-0.1,0.3-0.1,0.4-0.2
			c0.1-0.1,0.2-0.1,0.3-0.2c0.1-0.1,0.3-0.2,0.4-0.3c0.1-0.1,0.1-0.1,0.2-0.2c0.2-0.1,0.3-0.3,0.5-0.5c0,0,0.1,0,0.1-0.1l0,0
			c0,0,0,0,0,0l5.3-5.3L372,334.4l48-48l60.5-60.5C483.6,222.7,483.6,217.7,480.5,214.5z M202.7,334.4
			C202.7,334.4,202.7,334.4,202.7,334.4l59-59l68-68l15.9,15.9L193.2,375.6l-15.9-15.9L202.7,334.4z M356.9,234.6l18.9,18.9
			L306.2,323l-55.9,55.9l-26.9,26.9l-18.9-18.9L356.9,234.6z M155.1,455.3l3.8-18.9l15.1,15.1L155.1,455.3z M192.8,447.7l-30.2-30.2
			l8.3-41.6l16.6,16.6l30.2,30.2l16.6,16.6L192.8,447.7z M360.6,323l-110,110l-15.9-15.9l26.9-26.9l55.9-55.9l69.6-69.6l15.9,15.9
			L360.6,323z M414.3,269.3l-21.5-21.5l-30.2-30.2L341,196l49.1-49.1l73.3,73.3L414.3,269.3z"/>
	</g>
</g>
<g>
	<g>
		<path d="M394.2,169.1c-3.1-3.1-8.2-3.1-11.3,0l-19.2,19.2c-3.1,3.1-3.1,8.2,0,11.3c1.6,1.6,3.6,2.3,5.7,2.3s4.1-0.8,5.7-2.3
			l19.2-19.2C397.3,177.3,397.3,172.2,394.2,169.1z"/>
	</g>
</g>
</svg>
