<svg xmlns="http://www.w3.org/2000/svg" xmlns:xlink="http://www.w3.org/1999/xlink" width="47" height="46" viewBox="0 0 47 46"><defs><path id="a" d="M38 517.5c0-9.62 8.1-17.5 18-17.5s18 7.88 18 17.5c0 9.62-8.1 17.5-18 17.5s-18-7.88-18-17.5zm3.59 0c0 .48-.37.84-.87.84h-.99c.43 8.06 7.11 14.55 15.4 14.98v-.97c0-.48.37-.84.87-.84s.87.36.87.84v.97c8.28-.43 14.96-6.92 15.4-14.98h-1a.83.83 0 0 1-.86-.84c0-.48.37-.84.87-.84h.99c-.44-8.06-7.12-14.56-15.4-14.98v.97c0 .48-.38.84-.87.84a.83.83 0 0 1-.87-.84v-.97c-8.29.42-14.97 6.92-15.4 14.98h1.05c.44 0 .8.36.8.84zm12.43-.06c0-.66.43-1.32 1.05-1.62V508c0-.48.37-.84.87-.84s.86.36.86.84v7.82c.37.18.68.48.87.84h3.83c.5 0 .87.36.87.84s-.37.84-.87.84h-3.83c-.25.6-.93 1.02-1.67 1.02a2 2 0 0 1-1.98-1.92zm1.8.06c0 .12.06.18.18.18s.18-.06.18-.18-.06-.18-.18-.18-.19.06-.19.18z"/><mask id="c" width="2" height="2" x="-1" y="-1"><path fill="#fff" d="M36 498h39v38H36z"/><use xlink:href="#a"/></mask><filter id="b" width="67" height="68" x="22" y="488" filterUnits="userSpaceOnUse"><feOffset dy="2" in="SourceGraphic" result="FeOffset1022Out"/><feGaussianBlur in="FeOffset1022Out" result="FeGaussianBlur1023Out" stdDeviation="1.6 1.6"/></filter></defs><g transform="translate(-32 -496)"><g filter="url(#b)"><use fill="none" stroke-opacity=".3" stroke-width="0" mask="url(&quot;#c&quot;)" xlink:href="#a"/><use fill-opacity=".3" xlink:href="#a"/></g><use fill="#f8f8f8" xlink:href="#a"/><use fill="#fff" xlink:href="#a"/></g></svg>