<svg xmlns="http://www.w3.org/2000/svg" xmlns:xlink="http://www.w3.org/1999/xlink" width="44" height="33" viewBox="0 0 44 33"><defs><path id="a" d="M71.47 869H43.53a2.53 2.53 0 0 1-2.53-2.48v-17.04a2.53 2.53 0 0 1 2.53-2.48h27.94a2.53 2.53 0 0 1 2.53 2.48v17.04a2.53 2.53 0 0 1-2.53 2.48zm-29.1-1.46c.28.27.72.49 1.16.49h27.94c.44 0 .88-.22 1.15-.49l-12.48-8.95-2.37 1.73c-.16.1-.38.1-.6 0l-2.37-1.73zM61.02 858l11.99 8.63v-.11-17.15zm-19.03-8.57v17.2L53.98 858zm.38-.92l15.13 10.78 15.12-10.83a1.51 1.51 0 0 0-1.15-.49H43.53c-.44 0-.88.22-1.16.54z"/><mask id="c" width="2" height="2" x="-1" y="-1"><path fill="#fff" d="M39 845h36v25H39z"/><use xlink:href="#a"/></mask><filter id="b" width="64" height="55" x="25" y="835" filterUnits="userSpaceOnUse"><feOffset dy="2" in="SourceGraphic" result="FeOffset1142Out"/><feGaussianBlur in="FeOffset1142Out" result="FeGaussianBlur1143Out" stdDeviation="1.6 1.6"/></filter></defs><g transform="translate(-35 -843)"><g filter="url(#b)"><use fill="none" stroke-opacity=".3" stroke-width="0" mask="url(&quot;#c&quot;)" xlink:href="#a"/><use fill-opacity=".3" xlink:href="#a"/></g><use fill="#f8f8f8" xlink:href="#a"/><use fill="#fff" xlink:href="#a"/></g></svg>