<svg xmlns="http://www.w3.org/2000/svg" xmlns:xlink="http://www.w3.org/1999/xlink" width="35" height="40" viewBox="0 0 35 40"><defs><path id="a" d="M67.78 425.57c.14.13.22.32.22.5v10.15c0 .2-.08.38-.22.51l-1.28 1.24v3.76l1.28 1.23c.14.14.22.32.22.51v2.9c0 2-1.69 3.63-3.75 3.63h-16.5a3.7 3.7 0 0 1-3.75-3.62v-21.75c0-2 1.68-3.63 3.75-3.63h15c.2 0 .39.07.53.21zm-1.29.8l-4.05-3.92H47.75c-1.24 0-2.25.98-2.25 2.18v21.75c0 1.2 1.01 2.18 2.25 2.18h16.5c1.24 0 2.24-.99 2.24-2.18v-2.6l-1.28-1.24a.71.71 0 0 1-.22-.51v-4.35c0-.2.08-.38.22-.51l1.28-1.24zm-14.99-.3v4.36c0 .4-.33.73-.75.73a.74.74 0 0 1-.75-.73v-4.35c0-.4.34-.73.75-.73s.75.33.75.73zm5.25 0v4.36c0 .4-.34.73-.75.73a.74.74 0 0 1-.76-.73v-4.35c0-.4.34-.73.76-.73.41 0 .75.33.75.73zm5.25 0v4.36c0 .4-.34.73-.75.73a.74.74 0 0 1-.75-.73v-4.35c0-.4.33-.73.75-.73.4 0 .74.33.75.73z"/><mask id="c" width="2" height="2" x="-1" y="-1"><path fill="#fff" d="M42 419h27v32H42z"/><use xlink:href="#a"/></mask><filter id="b" width="55" height="62" x="28" y="409" filterUnits="userSpaceOnUse"><feOffset dy="2" in="SourceGraphic" result="FeOffset1082Out"/><feGaussianBlur in="FeOffset1082Out" result="FeGaussianBlur1083Out" stdDeviation="1.6 1.6"/></filter></defs><g transform="translate(-38 -417)"><g filter="url(#b)"><use fill="none" stroke-opacity=".3" stroke-width="0" mask="url(&quot;#c&quot;)" xlink:href="#a"/><use fill-opacity=".3" xlink:href="#a"/></g><use fill="#f8f8f8" xlink:href="#a"/><use fill="#fff" xlink:href="#a"/></g></svg>