<svg xmlns="http://www.w3.org/2000/svg" xmlns:xlink="http://www.w3.org/1999/xlink" width="43" height="36" viewBox="0 0 43 36"><defs><path id="a" d="M71 264.29v14.81c0 1.6-1.31 2.9-2.94 2.9H42.94a2.92 2.92 0 0 1-2.94-2.9V264.3c0-1.6 1.31-2.9 2.94-2.9h6.6v-1.87c0-1.4 1.14-2.52 2.55-2.52h6.8a2.54 2.54 0 0 1 2.55 2.52v1.87h6.63a2.9 2.9 0 0 1 2.93 2.9zm-20.3-2.9h9.56v-1.87c0-.75-.61-1.36-1.37-1.36h-6.8c-.76 0-1.38.6-1.38 1.36zm19.14 17.71v-8.76L58.9 271.8v.46c0 1.4-1.15 2.52-2.55 2.52h-1.26a2.54 2.54 0 0 1-2.55-2.52v-.38l-11.36-1.59v8.8c0 .96.78 1.74 1.76 1.74h25.13c.97 0 1.76-.78 1.76-1.74zm-14.75-5.46h1.26c.76 0 1.37-.6 1.37-1.36v-1.24c0-.74-.61-1.35-1.37-1.35h-1.26c-.76 0-1.38.6-1.38 1.35v1.24c0 .74.62 1.35 1.38 1.36zm14.73-4.49v-4.86c0-.96-.79-1.74-1.76-1.74H42.94c-.98 0-1.76.78-1.76 1.74v4.85l11.39 1.56a2.53 2.53 0 0 1 2.52-2.18h1.23c1.26 0 2.33.9 2.52 2.12l10.99-1.49z"/><mask id="c" width="2" height="2" x="-1" y="-1"><path fill="#fff" d="M38 255h35v28H38z"/><use xlink:href="#a"/></mask><filter id="b" width="63" height="58" x="24" y="245" filterUnits="userSpaceOnUse"><feOffset dy="2" in="SourceGraphic" result="FeOffset1042Out"/><feGaussianBlur in="FeOffset1042Out" result="FeGaussianBlur1043Out" stdDeviation="1.6 1.6"/></filter></defs><g transform="translate(-34 -253)"><g filter="url(#b)"><use fill="none" stroke-opacity=".3" stroke-width="0" mask="url(&quot;#c&quot;)" xlink:href="#a"/><use fill-opacity=".3" xlink:href="#a"/></g><use fill="#f8f8f8" xlink:href="#a"/><use fill="#fff" xlink:href="#a"/></g></svg>