<svg xmlns="http://www.w3.org/2000/svg" xmlns:xlink="http://www.w3.org/1999/xlink" width="38" height="39" viewBox="0 0 38 39"><defs><path id="a" d="M58.33 1036.2a.8.8 0 0 1-.8.8H50.2a5.21 5.21 0 0 1-5.21-5.2v-17.6c0-2.86 2.33-5.2 5.2-5.2h7.44c.45 0 .8.36.8.8a.8.8 0 0 1-.8.8h-7.43a3.6 3.6 0 0 0-3.6 3.6v17.6a3.6 3.6 0 0 0 3.6 3.6h7.31c.45 0 .8.35.8.8zm12.43-12.62l-5.11 5.1a.79.79 0 0 1-.57.23.8.8 0 0 1-.56-.24.8.8 0 0 1 0-1.13l3.74-3.73h-16.3a.8.8 0 0 1-.81-.8c0-.45.36-.8.8-.8h16.3l-3.73-3.74a.8.8 0 1 1 1.14-1.13l5.1 5.1a.8.8 0 0 1 0 1.14z"/><mask id="c" width="2" height="2" x="-1" y="-1"><path fill="#fff" d="M43 1007h30v31H43z"/><use xlink:href="#a"/></mask><filter id="b" width="58" height="61" x="29" y="997" filterUnits="userSpaceOnUse"><feOffset dy="2" in="SourceGraphic" result="FeOffset1182Out"/><feGaussianBlur in="FeOffset1182Out" result="FeGaussianBlur1183Out" stdDeviation="1.6 1.6"/></filter></defs><g transform="translate(-39 -1005)"><g filter="url(#b)"><use fill="none" stroke-opacity=".3" stroke-width="0" mask="url(&quot;#c&quot;)" xlink:href="#a"/><use fill-opacity=".3" xlink:href="#a"/></g><use fill="#f8f8f8" xlink:href="#a"/><use fill="#fff" xlink:href="#a"/></g></svg>