<svg xmlns="http://www.w3.org/2000/svg" xmlns:xlink="http://www.w3.org/1999/xlink" width="40" height="39" viewBox="0 0 40 39"><defs><path id="a" d="M71.76 953.75a.82.82 0 0 1-1.18 0l-6.8-6.8a11.96 11.96 0 0 1-19.77-9 11.95 11.95 0 0 1 23.87-.01c0 3-1.1 5.73-2.93 7.83l6.8 6.8c.33.32.33.86 0 1.18zm-15.83-5.54a10.27 10.27 0 1 0-10.26-10.27c0 5.66 4.6 10.27 10.26 10.27z"/><mask id="c" width="2" height="2" x="-1" y="-1"><path fill="#fff" d="M42 924h32v31H42z"/><use xlink:href="#a"/></mask><filter id="b" width="60" height="61" x="28" y="914" filterUnits="userSpaceOnUse"><feOffset dy="2" in="SourceGraphic" result="FeOffset1162Out"/><feGaussianBlur in="FeOffset1162Out" result="FeGaussianBlur1163Out" stdDeviation="1.6 1.6"/></filter></defs><g transform="translate(-38 -922)"><g filter="url(#b)"><use fill="none" stroke-opacity=".3" stroke-width="0" mask="url(&quot;#c&quot;)" xlink:href="#a"/><use fill-opacity=".3" xlink:href="#a"/></g><use fill="#f8f8f8" xlink:href="#a"/><use fill="#fff" xlink:href="#a"/></g></svg>