<svg xmlns="http://www.w3.org/2000/svg" xmlns:xlink="http://www.w3.org/1999/xlink" width="44" height="44" viewBox="0 0 44 44"><defs><path id="a" d="M48.5 585.68v4.36a2.88 2.88 0 0 1 2.15 2.74 2.92 2.92 0 0 1-2.91 2.87 2.92 2.92 0 0 1-2.92-2.87c0-1.3.9-2.43 2.16-2.74v-4.36a.7.7 0 0 1 .7-.68c.44 0 .75.31.82.68zm16.71 0v4.36a2.88 2.88 0 0 1 2.15 2.74 2.92 2.92 0 0 1-2.9 2.87 2.92 2.92 0 0 1-2.92-2.87c0-1.3.89-2.43 2.15-2.74v-4.36a.7.7 0 0 1 .7-.68c.38 0 .7.31.82.68zm-20.45 1.44c.38-.07.76.3.76.68 0 .37-.38.69-.76.69h-2.15c-1.2 0-2.15.93-2.15 2.11v6.42h31.08v-6.42c0-1.18-.95-2.11-2.15-2.11h-2.15c-.38.06-.76-.32-.76-.69 0-.37.38-.68.76-.68h2.15c1.96 0 3.6 1.55 3.6 3.55v22.78a3.58 3.58 0 0 1-3.6 3.55H42.61a3.58 3.58 0 0 1-3.61-3.55v-22.78a3.58 3.58 0 0 1 3.6-3.55zm16.72 0c.38 0 .7.3.7.68a.7.7 0 0 1-.7.69h-10.9a.7.7 0 0 1-.69-.69.7.7 0 0 1 .7-.68zm-15.26 5.72c0 .81.63 1.44 1.45 1.44.83 0 1.46-.63 1.46-1.44 0-.8-.63-1.43-1.46-1.43-.76 0-1.45.62-1.45 1.43zm16.71 0c0 .81.64 1.44 1.46 1.44s1.45-.63 1.45-1.44c0-.8-.63-1.43-1.45-1.43s-1.46.62-1.46 1.43zm-22.47 20.61c0 1.18.95 2.12 2.15 2.12h26.84c1.2 0 2.16-.94 2.16-2.12v-14.94H40.46z"/><mask id="c" width="2" height="2" x="-1" y="-1"><path fill="#fff" d="M38 583h36v36H38z"/><use xlink:href="#a"/></mask><filter id="b" width="64" height="66" x="24" y="573" filterUnits="userSpaceOnUse"><feOffset dy="2" in="SourceGraphic" result="FeOffset1122Out"/><feGaussianBlur in="FeOffset1122Out" result="FeGaussianBlur1123Out" stdDeviation="1.6 1.6"/></filter></defs><g transform="translate(-34 -581)"><g filter="url(#b)"><use fill="none" stroke-opacity=".3" stroke-width="0" mask="url(&quot;#c&quot;)" xlink:href="#a"/><use fill-opacity=".3" xlink:href="#a"/></g><use fill="#f8f8f8" xlink:href="#a"/><use fill="#fff" xlink:href="#a"/></g></svg>