<svg xmlns="http://www.w3.org/2000/svg" xmlns:xlink="http://www.w3.org/1999/xlink" width="43" height="40" viewBox="0 0 43 40"><defs><path id="a" d="M72.37 352.21c0 7.84-7.17 14.21-16 14.21-2.27 0-4.46-.41-6.53-1.24-3.63 2.07-8.64 2.78-8.86 2.81l-.07.01a.53.53 0 0 1-.48-.3.52.52 0 0 1 .1-.6c1.23-1.2 2.07-3.76 2.39-7.2a13.02 13.02 0 0 1-2.55-7.69c0-7.84 7.18-14.21 16-14.21 8.83 0 16 6.37 16 14.21zm-1.06 0c0-7.25-6.7-13.16-14.94-13.16-8.23 0-14.93 5.9-14.93 13.16a12 12 0 0 0 2.45 7.22c.08.1.12.23.1.36-.18 2.2-.65 5-1.83 6.93 1.78-.36 4.98-1.15 7.37-2.57a50.2 50.2 0 0 0 2.67-1.71.54.54 0 0 1 .98.3c0 .3 0 .4-2.18 1.74 1.71.59 3.51.89 5.37.89 8.24 0 14.94-5.9 14.94-13.16zm-18.94-3.42c0-.3.24-.53.54-.53h7.46c.3 0 .54.24.54.53 0 .29-.24.53-.54.53h-7.46a.53.53 0 0 1-.54-.53zm11.47 3.68c0 .3-.24.53-.53.53H49.97a.53.53 0 0 1-.53-.53c0-.29.24-.52.53-.52h13.34c.3 0 .53.23.53.52zm0 3.69c0 .29-.24.52-.53.52H49.97a.53.53 0 0 1-.53-.52c0-.3.24-.53.53-.53h13.34c.3 0 .53.24.53.53z"/><mask id="c" width="2" height="2" x="-1" y="-1"><path fill="#fff" d="M39 337h35v32H39z"/><use xlink:href="#a"/></mask><filter id="b" width="63" height="62" x="25" y="327" filterUnits="userSpaceOnUse"><feOffset dy="2" in="SourceGraphic" result="FeOffset1062Out"/><feGaussianBlur in="FeOffset1062Out" result="FeGaussianBlur1063Out" stdDeviation="1.6 1.6"/></filter></defs><g transform="translate(-35 -335)"><g filter="url(#b)"><use fill="none" stroke-opacity=".3" stroke-width="0" mask="url(&quot;#c&quot;)" xlink:href="#a"/><use fill-opacity=".3" xlink:href="#a"/></g><use fill="#f8f8f8" xlink:href="#a"/><use fill="#fff" xlink:href="#a"/></g></svg>